G04*
G04 #@! TF.GenerationSoftware,Altium Limited,CircuitStudio,1.5.2 (1.5.2.30)*
G04*
G04 Layer_Physical_Order=1*
G04 Layer_Color=11767835*
%FSLAX44Y44*%
%MOMM*%
G71*
G01*
G75*
%ADD10R,1.3000X1.6000*%
%ADD11R,0.8000X1.2400*%
%ADD12R,0.9500X2.5000*%
%ADD13R,1.1500X2.2000*%
%ADD14R,1.1600X1.2500*%
%ADD15R,1.1600X1.2000*%
%ADD16R,1.5000X1.1500*%
%ADD17C,0.2540*%
%ADD18C,0.5000*%
%ADD19C,1.7780*%
%ADD20R,1.7780X1.7780*%
%ADD21C,1.5240*%
%ADD22R,1.5240X1.5240*%
%ADD23R,13.0000X14.0000*%
%ADD24C,0.6000*%
G36*
X469240Y425190D02*
X466420D01*
Y411650D01*
Y398110D01*
X469240D01*
Y365045D01*
X489247D01*
X489322Y298366D01*
X489323Y298365D01*
X488993Y295019D01*
X488017Y291802D01*
X486432Y288836D01*
X485098Y287211D01*
X484240Y286296D01*
X474240Y276295D01*
X424923D01*
X424510Y277470D01*
X424527Y277565D01*
X425794Y278411D01*
X426678Y279734D01*
X426988Y281295D01*
X426678Y282856D01*
X426194Y283580D01*
X426873Y284850D01*
X427700D01*
Y298248D01*
X427700Y299250D01*
X428859Y299518D01*
X430293D01*
X431058Y299835D01*
X431375Y300600D01*
Y382418D01*
X431058Y383184D01*
X430293Y383501D01*
X338200D01*
X337435Y383184D01*
X337118Y382418D01*
Y300600D01*
X337435Y299835D01*
X338200Y299518D01*
X339541D01*
X340700Y299250D01*
X340700Y298248D01*
Y284850D01*
X341737D01*
X342416Y283580D01*
X341932Y282856D01*
X341622Y281295D01*
X341932Y279734D01*
X342816Y278411D01*
X344082Y277565D01*
X344100Y277470D01*
X343686Y276295D01*
X314240D01*
X309182Y281236D01*
X307048Y283836D01*
X305463Y286801D01*
X304487Y290019D01*
X304165Y293284D01*
X304240Y293366D01*
X304240D01*
Y371295D01*
X260953Y414582D01*
X261439Y415755D01*
X263470D01*
Y425025D01*
X255700D01*
Y421494D01*
X254527Y421008D01*
X249240Y426295D01*
X174240D01*
Y506295D01*
X469240D01*
Y425190D01*
D02*
G37*
%LPC*%
G36*
X420830Y418330D02*
X412060D01*
Y411310D01*
X420830D01*
Y418330D01*
D02*
G37*
G36*
X432140D02*
X423370D01*
Y411310D01*
X432140D01*
Y418330D01*
D02*
G37*
G36*
X343030D02*
X334260D01*
Y415616D01*
X333100Y415350D01*
X332990Y415350D01*
X319500D01*
Y410664D01*
X305030D01*
X304884Y410884D01*
X303561Y411768D01*
X302000Y412078D01*
X300439Y411768D01*
X299116Y410884D01*
X298232Y409561D01*
X297922Y408000D01*
X298232Y406439D01*
X299116Y405116D01*
X300439Y404232D01*
X302000Y403922D01*
X303561Y404232D01*
X304884Y405116D01*
X305498Y406035D01*
X319500D01*
Y401350D01*
X333100D01*
Y411045D01*
X333100D01*
X334260Y411310D01*
X334370Y411310D01*
X343030D01*
Y418330D01*
D02*
G37*
G36*
X354340D02*
X345570D01*
Y411310D01*
X354340D01*
Y418330D01*
D02*
G37*
G36*
X343030Y427890D02*
X334260D01*
Y420870D01*
X343030D01*
Y427890D01*
D02*
G37*
G36*
X420830D02*
X412060D01*
Y420870D01*
X420830D01*
Y427890D01*
D02*
G37*
G36*
X463880Y425190D02*
X456860D01*
Y412920D01*
X463880D01*
Y425190D01*
D02*
G37*
G36*
X273780Y425025D02*
X266010D01*
Y415755D01*
X273780D01*
Y425025D01*
D02*
G37*
G36*
X464880Y297080D02*
X458860D01*
Y283310D01*
X464880D01*
Y297080D01*
D02*
G37*
G36*
X473440D02*
X467420D01*
Y283310D01*
X473440D01*
Y297080D01*
D02*
G37*
G36*
X320980Y295580D02*
X313960D01*
Y283310D01*
X320980D01*
Y295580D01*
D02*
G37*
G36*
X330540D02*
X323520D01*
Y283310D01*
X330540D01*
Y295580D01*
D02*
G37*
G36*
X473440Y313390D02*
X467420D01*
Y299620D01*
X473440D01*
Y313390D01*
D02*
G37*
G36*
X463880Y410380D02*
X456860D01*
Y398110D01*
X463880D01*
Y410380D01*
D02*
G37*
G36*
X325000Y339078D02*
X323439Y338768D01*
X322116Y337884D01*
X321232Y336561D01*
X320922Y335000D01*
X321232Y333439D01*
X322116Y332116D01*
X323439Y331232D01*
X323985Y331123D01*
Y325600D01*
X319500D01*
Y311660D01*
X319500Y311100D01*
X318524Y310390D01*
X318524Y310390D01*
X313960D01*
Y298120D01*
X322250D01*
Y296850D01*
D01*
Y298120D01*
X330540D01*
Y309830D01*
X330540Y310390D01*
X331516Y311100D01*
X331516Y311100D01*
X333100D01*
Y325600D01*
X328615D01*
Y333210D01*
X328768Y333439D01*
X329078Y335000D01*
X328768Y336561D01*
X327884Y337884D01*
X326561Y338768D01*
X325000Y339078D01*
D02*
G37*
G36*
X464880Y313390D02*
X458860D01*
Y299620D01*
X464880D01*
Y313390D01*
D02*
G37*
G36*
X354340Y427890D02*
X345570D01*
Y420870D01*
X354340D01*
Y427890D01*
D02*
G37*
G36*
X370840Y469989D02*
X368590Y469693D01*
X366493Y468825D01*
X364692Y467443D01*
X363310Y465642D01*
X362442Y463545D01*
X362146Y461295D01*
X362442Y459045D01*
X363310Y456948D01*
X364692Y455147D01*
X366493Y453765D01*
X368590Y452897D01*
X370840Y452601D01*
X373090Y452897D01*
X375187Y453765D01*
X376988Y455147D01*
X378370Y456948D01*
X379238Y459045D01*
X379534Y461295D01*
X379238Y463545D01*
X378370Y465642D01*
X376988Y467443D01*
X375187Y468825D01*
X373090Y469693D01*
X370840Y469989D01*
D02*
G37*
G36*
X396240D02*
X393990Y469693D01*
X391893Y468825D01*
X390092Y467443D01*
X388710Y465642D01*
X387842Y463545D01*
X387546Y461295D01*
X387842Y459045D01*
X388710Y456948D01*
X390092Y455147D01*
X391893Y453765D01*
X393990Y452897D01*
X396240Y452601D01*
X398490Y452897D01*
X400587Y453765D01*
X402388Y455147D01*
X403770Y456948D01*
X404638Y459045D01*
X404934Y461295D01*
X404638Y463545D01*
X403770Y465642D01*
X402388Y467443D01*
X400587Y468825D01*
X398490Y469693D01*
X396240Y469989D01*
D02*
G37*
G36*
X294640D02*
X292390Y469693D01*
X290293Y468825D01*
X288492Y467443D01*
X287110Y465642D01*
X286242Y463545D01*
X285946Y461295D01*
X286242Y459045D01*
X287110Y456948D01*
X288492Y455147D01*
X290293Y453765D01*
X292390Y452897D01*
X294640Y452601D01*
X296890Y452897D01*
X298987Y453765D01*
X300788Y455147D01*
X302170Y456948D01*
X303038Y459045D01*
X303334Y461295D01*
X303038Y463545D01*
X302170Y465642D01*
X300788Y467443D01*
X298987Y468825D01*
X296890Y469693D01*
X294640Y469989D01*
D02*
G37*
G36*
X345440D02*
X343190Y469693D01*
X341093Y468825D01*
X339292Y467443D01*
X337910Y465642D01*
X337042Y463545D01*
X336746Y461295D01*
X337042Y459045D01*
X337910Y456948D01*
X339292Y455147D01*
X341093Y453765D01*
X343190Y452897D01*
X345440Y452601D01*
X347690Y452897D01*
X349787Y453765D01*
X351588Y455147D01*
X352970Y456948D01*
X353838Y459045D01*
X354134Y461295D01*
X353838Y463545D01*
X352970Y465642D01*
X351588Y467443D01*
X349787Y468825D01*
X347690Y469693D01*
X345440Y469989D01*
D02*
G37*
G36*
X318770Y471375D02*
X317388Y471193D01*
X314916Y470170D01*
X312794Y468541D01*
X311165Y466419D01*
X310142Y463947D01*
X309960Y462565D01*
X318770D01*
Y471375D01*
D02*
G37*
G36*
X321310D02*
Y462565D01*
X330121D01*
X329939Y463947D01*
X328915Y466419D01*
X327286Y468541D01*
X325164Y470170D01*
X322692Y471193D01*
X321310Y471375D01*
D02*
G37*
G36*
X421640Y469989D02*
X419390Y469693D01*
X417293Y468825D01*
X415492Y467443D01*
X414110Y465642D01*
X413242Y463545D01*
X412946Y461295D01*
X413242Y459045D01*
X414110Y456948D01*
X415492Y455147D01*
X417293Y453765D01*
X419390Y452897D01*
X421640Y452601D01*
X423890Y452897D01*
X425987Y453765D01*
X427788Y455147D01*
X429170Y456948D01*
X430038Y459045D01*
X430334Y461295D01*
X430038Y463545D01*
X429170Y465642D01*
X427788Y467443D01*
X425987Y468825D01*
X423890Y469693D01*
X421640Y469989D01*
D02*
G37*
G36*
X455660Y469915D02*
X438420D01*
Y452675D01*
X455660D01*
Y469915D01*
D02*
G37*
G36*
X269240Y469989D02*
X266990Y469693D01*
X264893Y468825D01*
X263092Y467443D01*
X261710Y465642D01*
X260842Y463545D01*
X260546Y461295D01*
X260842Y459045D01*
X261710Y456948D01*
X263092Y455147D01*
X264893Y453765D01*
X266990Y452897D01*
X269240Y452601D01*
X271490Y452897D01*
X273587Y453765D01*
X275388Y455147D01*
X276770Y456948D01*
X277638Y459045D01*
X277934Y461295D01*
X277638Y463545D01*
X276770Y465642D01*
X275388Y467443D01*
X273587Y468825D01*
X271490Y469693D01*
X269240Y469989D01*
D02*
G37*
G36*
X273780Y436835D02*
X266010D01*
Y427565D01*
X273780D01*
Y436835D01*
D02*
G37*
G36*
X304240Y450373D02*
X302679Y450063D01*
X301356Y449179D01*
X300472Y447856D01*
X300162Y446295D01*
X300472Y444734D01*
X301356Y443411D01*
X301926Y443031D01*
Y440254D01*
X292413Y430742D01*
X291240Y431227D01*
Y435295D01*
X276240D01*
Y417295D01*
X291240D01*
Y423980D01*
X292126Y424157D01*
X292877Y424658D01*
X305877Y437658D01*
X306212Y438160D01*
X306378Y438409D01*
X306555Y439295D01*
Y443031D01*
X307124Y443411D01*
X308008Y444734D01*
X308318Y446295D01*
X308008Y447856D01*
X307124Y449179D01*
X305801Y450063D01*
X304240Y450373D01*
D02*
G37*
G36*
X432140Y427890D02*
X423370D01*
Y420870D01*
X432140D01*
Y427890D01*
D02*
G37*
G36*
X263470Y436835D02*
X255700D01*
Y427565D01*
X263470D01*
Y436835D01*
D02*
G37*
G36*
X193040Y471555D02*
X190458Y471215D01*
X188052Y470219D01*
X185986Y468633D01*
X184401Y466567D01*
X183405Y464162D01*
X183065Y461580D01*
X183405Y458998D01*
X184401Y456592D01*
X185986Y454526D01*
X188052Y452941D01*
X190458Y451944D01*
X193040Y451604D01*
X195622Y451944D01*
X198028Y452941D01*
X200094Y454526D01*
X201679Y456592D01*
X202675Y458998D01*
X203015Y461580D01*
X202675Y464162D01*
X201679Y466567D01*
X200094Y468633D01*
X198028Y470219D01*
X195622Y471215D01*
X193040Y471555D01*
D02*
G37*
G36*
X228330Y471470D02*
X208550D01*
Y451690D01*
X228330D01*
Y471470D01*
D02*
G37*
G36*
X318770Y460025D02*
X309960D01*
X310142Y458643D01*
X311165Y456171D01*
X312794Y454049D01*
X314916Y452420D01*
X317388Y451396D01*
X318770Y451214D01*
Y460025D01*
D02*
G37*
G36*
X330121D02*
X321310D01*
Y451214D01*
X322692Y451396D01*
X325164Y452420D01*
X327286Y454049D01*
X328915Y456171D01*
X329939Y458643D01*
X330121Y460025D01*
D02*
G37*
%LPD*%
D10*
X264740Y426295D02*
D03*
X283740D02*
D03*
D11*
X422700Y292050D02*
D03*
X411700D02*
D03*
X400700D02*
D03*
X389700D02*
D03*
X378700D02*
D03*
X367700D02*
D03*
X356700D02*
D03*
X345700D02*
D03*
D12*
X466150Y298350D02*
D03*
D13*
X322250Y296850D02*
D03*
X465150Y411650D02*
D03*
D14*
X326300Y318350D02*
D03*
D15*
Y408350D02*
D03*
D16*
X422100Y419600D02*
D03*
X344300D02*
D03*
D17*
X304240Y439295D02*
Y446295D01*
X291240Y426295D02*
X304240Y439295D01*
X283740Y426295D02*
X291240D01*
X367700Y292050D02*
X368240Y291510D01*
Y281295D02*
Y291510D01*
X411700Y281295D02*
Y292050D01*
X302000Y408000D02*
X302350Y408350D01*
X326300D01*
X325000Y335000D02*
X326300Y333700D01*
Y318350D02*
Y333700D01*
X389700Y281295D02*
Y292050D01*
X345700Y281295D02*
Y292050D01*
X356700Y280840D02*
Y292050D01*
X378700Y282400D02*
Y292050D01*
X400700Y280670D02*
Y292050D01*
X422700Y282400D02*
Y292050D01*
D18*
X307169Y276295D02*
G03*
X319240Y271295I12071J12071D01*
G01*
X297169Y298995D02*
G03*
X306149Y277315I30661J0D01*
G01*
X485260D02*
G03*
X494240Y298995I-21680J21680D01*
G01*
X472169Y271295D02*
G03*
X484240Y276295I0J17071D01*
G01*
X494240Y298995D02*
Y333295D01*
X527240Y366295D01*
X614240D01*
X169240Y421295D02*
X242169D01*
X297169Y366295D01*
Y298995D02*
Y366295D01*
X484240Y276295D02*
X485260Y277315D01*
X469240Y271295D02*
X472169D01*
X169240Y421295D02*
Y510000D01*
X614240Y366295D02*
Y510000D01*
X319240Y271295D02*
X469240D01*
X169240Y510000D02*
X614240D01*
D19*
X193040Y461580D02*
D03*
D20*
X218440Y461580D02*
D03*
D21*
X269240Y461295D02*
D03*
X294640D02*
D03*
X421640D02*
D03*
X396240D02*
D03*
X370840D02*
D03*
X345440D02*
D03*
X320040D02*
D03*
D22*
X447040D02*
D03*
D23*
X544240Y442545D02*
D03*
D24*
X304240Y446295D02*
D03*
X345700Y281295D02*
D03*
X368240D02*
D03*
X389700D02*
D03*
X302000Y408000D02*
D03*
X325000Y335000D02*
D03*
X356870Y281295D02*
D03*
X378940D02*
D03*
X400700D02*
D03*
X411480D02*
D03*
X422910D02*
D03*
M02*
