G04*
G04 #@! TF.GenerationSoftware,Altium Limited,CircuitStudio,1.5.2 (1.5.2.30)*
G04*
G04 Layer_Color=15065295*
%FSLAX44Y44*%
%MOMM*%
G71*
G01*
G75*
%ADD17C,0.2540*%
%ADD18C,0.5000*%
%ADD25C,0.2000*%
%ADD26C,0.2032*%
%ADD27C,0.1778*%
%ADD28C,0.1270*%
D17*
X459240Y427295D02*
Y437292D01*
X462572Y433959D01*
X465905Y437292D01*
Y427295D01*
X469237D02*
X472569D01*
X470903D01*
Y437292D01*
X469237Y435626D01*
X276905Y409626D02*
X275238Y411292D01*
X271906D01*
X270240Y409626D01*
Y402961D01*
X271906Y401295D01*
X275238D01*
X276905Y402961D01*
X280237Y401295D02*
X283569D01*
X281903D01*
Y411292D01*
X280237Y409626D01*
X307904Y356292D02*
X304572D01*
X306238D01*
Y347961D01*
X304572Y346295D01*
X302906D01*
X301240Y347961D01*
X311237Y346295D02*
X314569D01*
X312903D01*
Y356292D01*
X311237Y354626D01*
X354905Y445292D02*
X351572D01*
X353238D01*
Y436961D01*
X351572Y435295D01*
X349906D01*
X348240Y436961D01*
X364901Y435295D02*
X358237D01*
X364901Y441959D01*
Y443626D01*
X363235Y445292D01*
X359903D01*
X358237Y443626D01*
X201905Y444292D02*
X198572D01*
X200238D01*
Y435961D01*
X198572Y434295D01*
X196906D01*
X195240Y435961D01*
X205237Y442626D02*
X206903Y444292D01*
X210235D01*
X211901Y442626D01*
Y440959D01*
X210235Y439293D01*
X208569D01*
X210235D01*
X211901Y437627D01*
Y435961D01*
X210235Y434295D01*
X206903D01*
X205237Y435961D01*
D18*
X307169Y276295D02*
G03*
X319240Y271295I12071J12071D01*
G01*
X297169Y298995D02*
G03*
X306149Y277315I30661J0D01*
G01*
X485260D02*
G03*
X494240Y298995I-21680J21680D01*
G01*
X472169Y271295D02*
G03*
X484240Y276295I0J17071D01*
G01*
X494240Y298995D02*
Y333295D01*
X527240Y366295D01*
X614240D01*
X169240Y421295D02*
X242169D01*
X297169Y366295D01*
Y298995D02*
Y366295D01*
X484240Y276295D02*
X485260Y277315D01*
X469240Y271295D02*
X472169D01*
X169240Y421295D02*
Y510000D01*
X614240Y366295D02*
Y510000D01*
X319240Y271295D02*
X469240D01*
X169240Y510000D02*
X614240D01*
D25*
X432800Y266700D02*
G03*
X432800Y266700I-1000J0D01*
G01*
X611740Y369545D02*
Y513795D01*
X477240D02*
X611740D01*
X477240Y369545D02*
X611740D01*
X477240D02*
Y513795D01*
D26*
X256206Y436455D02*
X292274D01*
X256206Y416135D02*
X292274D01*
X256206D02*
Y436455D01*
X292274Y416135D02*
Y436455D01*
D27*
X180740Y448580D02*
Y502580D01*
Y448580D02*
X231440D01*
X180740Y502580D02*
X231440D01*
Y448580D02*
Y502580D01*
X257040Y448295D02*
Y502295D01*
Y448295D02*
X459740D01*
X257040Y502295D02*
X459740D01*
Y448295D02*
Y502295D01*
D28*
X464400Y273350D02*
Y282800D01*
X323000Y273350D02*
X464400D01*
X323000D02*
Y282800D01*
X354700Y422850D02*
X411700D01*
M02*
