G04*
G04 #@! TF.GenerationSoftware,Altium Limited,CircuitStudio,1.5.2 (1.5.2.30)*
G04*
G04 Layer_Color=11767835*
%FSLAX44Y44*%
%MOMM*%
G71*
G01*
G75*
%ADD18C,0.5000*%
%ADD19C,1.7780*%
%ADD20R,1.7780X1.7780*%
%ADD21C,1.5240*%
%ADD22R,1.5240X1.5240*%
D18*
X307169Y276295D02*
G03*
X319240Y271295I12071J12071D01*
G01*
X297169Y298995D02*
G03*
X306149Y277315I30661J0D01*
G01*
X485260D02*
G03*
X494240Y298995I-21680J21680D01*
G01*
X472169Y271295D02*
G03*
X484240Y276295I0J17071D01*
G01*
X494240Y298995D02*
Y333295D01*
X527240Y366295D01*
X614240D01*
X169240Y421295D02*
X242169D01*
X297169Y366295D01*
Y298995D02*
Y366295D01*
X484240Y276295D02*
X485260Y277315D01*
X469240Y271295D02*
X472169D01*
X169240Y421295D02*
Y510000D01*
X614240Y366295D02*
Y510000D01*
X319240Y271295D02*
X469240D01*
X169240Y510000D02*
X614240D01*
D19*
X193040Y461580D02*
D03*
D20*
X218440Y461580D02*
D03*
D21*
X269240Y461295D02*
D03*
X294640D02*
D03*
X421640D02*
D03*
X396240D02*
D03*
X370840D02*
D03*
X345440D02*
D03*
X320040D02*
D03*
D22*
X447040D02*
D03*
M02*
