M48
;Layer_Color=6321
;FILE_FORMAT=4:4
METRIC,LZ
;TYPE=PLATED
T1F00S00C0.3000
T2F00S00C1.0000
T3F00S00C1.0160
;TYPE=NON_PLATED
T4F00S00C4.0000
%
T01
X003457Y00281295
X0035687
X0036824
X0037894
X003897
X00325Y00335
X004007Y00281295
X0041148
X0042291
X00302Y00408
X0030424Y00446295
T02
X0042164Y00461295
X0044704
X0039624
X0037084
X0034544
X0032004
X0029464
X0026924
T03
X0019304Y0046158
X0021844Y0046158
T04
X0054424Y00409295
M30
