G04*
G04 #@! TF.GenerationSoftware,Altium Limited,CircuitStudio,1.5.2 (1.5.2.30)*
G04*
G04 Layer_Color=2752767*
%FSLAX44Y44*%
%MOMM*%
G71*
G01*
G75*
%ADD18C,0.5000*%
%ADD28C,0.1270*%
%ADD45C,0.1693*%
D18*
X307169Y276295D02*
G03*
X319240Y271295I12071J12071D01*
G01*
X297169Y298995D02*
G03*
X306149Y277315I30661J0D01*
G01*
X485260D02*
G03*
X494240Y298995I-21680J21680D01*
G01*
X472169Y271295D02*
G03*
X484240Y276295I0J17071D01*
G01*
X494240Y298995D02*
Y333295D01*
X527240Y366295D01*
X614240D01*
X169240Y421295D02*
X242169D01*
X297169Y366295D01*
Y298995D02*
Y366295D01*
X484240Y276295D02*
X485260Y277315D01*
X469240Y271295D02*
X472169D01*
X169240Y421295D02*
Y510000D01*
X614240Y366295D02*
Y510000D01*
X319240Y271295D02*
X469240D01*
X169240Y510000D02*
X614240D01*
D28*
X187960Y456500D02*
Y466660D01*
X198120D01*
Y456500D01*
X187960D01*
X213360Y456500D02*
Y466660D01*
X223520D01*
Y456500D01*
X213360D01*
X544240Y404215D02*
X539160Y414375D01*
X549320D01*
X544240Y404215D01*
X304240Y441215D02*
X306780Y443755D01*
X309320D01*
X306780Y446295D01*
X309320Y448835D01*
X306780D01*
X304240Y451375D01*
X301700Y448835D01*
X299160D01*
X301700Y446295D01*
X299160Y443755D01*
X301700D01*
X304240Y441215D01*
X345700Y276215D02*
X348240Y278755D01*
X350780D01*
X348240Y281295D01*
X350780Y283835D01*
X348240D01*
X345700Y286375D01*
X343160Y283835D01*
X340620D01*
X343160Y281295D01*
X340620Y278755D01*
X343160D01*
X345700Y276215D01*
X368240D02*
X370780Y278755D01*
X373320D01*
X370780Y281295D01*
X373320Y283835D01*
X370780D01*
X368240Y286375D01*
X365700Y283835D01*
X363160D01*
X365700Y281295D01*
X363160Y278755D01*
X365700D01*
X368240Y276215D01*
X389700D02*
X392240Y278755D01*
X394780D01*
X392240Y281295D01*
X394780Y283835D01*
X392240D01*
X389700Y286375D01*
X387160Y283835D01*
X384620D01*
X387160Y281295D01*
X384620Y278755D01*
X387160D01*
X389700Y276215D01*
X302000Y402920D02*
X304540Y405460D01*
X307080D01*
X304540Y408000D01*
X307080Y410540D01*
X304540D01*
X302000Y413080D01*
X299460Y410540D01*
X296920D01*
X299460Y408000D01*
X296920Y405460D01*
X299460D01*
X302000Y402920D01*
X325000Y329920D02*
X327540Y332460D01*
X330080D01*
X327540Y335000D01*
X330080Y337540D01*
X327540D01*
X325000Y340080D01*
X322460Y337540D01*
X319920D01*
X322460Y335000D01*
X319920Y332460D01*
X322460D01*
X325000Y329920D01*
X356870Y276215D02*
X359410Y278755D01*
X361950D01*
X359410Y281295D01*
X361950Y283835D01*
X359410D01*
X356870Y286375D01*
X354330Y283835D01*
X351790D01*
X354330Y281295D01*
X351790Y278755D01*
X354330D01*
X356870Y276215D01*
X378940D02*
X381480Y278755D01*
X384020D01*
X381480Y281295D01*
X384020Y283835D01*
X381480D01*
X378940Y286375D01*
X376400Y283835D01*
X373860D01*
X376400Y281295D01*
X373860Y278755D01*
X376400D01*
X378940Y276215D01*
X400700D02*
X403240Y278755D01*
X405780D01*
X403240Y281295D01*
X405780Y283835D01*
X403240D01*
X400700Y286375D01*
X398160Y283835D01*
X395620D01*
X398160Y281295D01*
X395620Y278755D01*
X398160D01*
X400700Y276215D01*
X411480D02*
X414020Y278755D01*
X416560D01*
X414020Y281295D01*
X416560Y283835D01*
X414020D01*
X411480Y286375D01*
X408940Y283835D01*
X406400D01*
X408940Y281295D01*
X406400Y278755D01*
X408940D01*
X411480Y276215D01*
X422910D02*
X425450Y278755D01*
X427990D01*
X425450Y281295D01*
X427990Y283835D01*
X425450D01*
X422910Y286375D01*
X420370Y283835D01*
X417830D01*
X420370Y281295D01*
X417830Y278755D01*
X420370D01*
X422910Y276215D01*
D45*
X274320Y461295D02*
G03*
X274320Y461295I-5080J0D01*
G01*
X299720D02*
G03*
X299720Y461295I-5080J0D01*
G01*
X452120D02*
G03*
X452120Y461295I-5080J0D01*
G01*
X426720D02*
G03*
X426720Y461295I-5080J0D01*
G01*
X401320D02*
G03*
X401320Y461295I-5080J0D01*
G01*
X375920D02*
G03*
X375920Y461295I-5080J0D01*
G01*
X350520D02*
G03*
X350520Y461295I-5080J0D01*
G01*
X325120D02*
G03*
X325120Y461295I-5080J0D01*
G01*
M02*
