G04*
G04 #@! TF.GenerationSoftware,Altium Limited,CircuitStudio,1.5.2 (1.5.2.30)*
G04*
G04 Layer_Color=128*
%FSLAX44Y44*%
%MOMM*%
G71*
G01*
G75*
%ADD18C,0.5000*%
%ADD28C,0.1270*%
D18*
X307169Y276295D02*
G03*
X319240Y271295I12071J12071D01*
G01*
X297169Y298995D02*
G03*
X306149Y277315I30661J0D01*
G01*
X485260D02*
G03*
X494240Y298995I-21680J21680D01*
G01*
X472169Y271295D02*
G03*
X484240Y276295I0J17071D01*
G01*
X494240Y298995D02*
Y333295D01*
X527240Y366295D01*
X614240D01*
X169240Y421295D02*
X242169D01*
X297169Y366295D01*
Y298995D02*
Y366295D01*
X484240Y276295D02*
X485260Y277315D01*
X469240Y271295D02*
X472169D01*
X169240Y421295D02*
Y510000D01*
X614240Y366295D02*
Y510000D01*
X319240Y271295D02*
X469240D01*
X169240Y510000D02*
X614240D01*
D28*
X187960Y461580D02*
X198120D01*
X193040Y456500D02*
Y466660D01*
X213360Y461580D02*
X223520D01*
X218440Y456500D02*
Y466660D01*
X264240Y461295D02*
X274240D01*
X269240Y456295D02*
Y466295D01*
X289640Y461295D02*
X299640D01*
X294640Y456295D02*
Y466295D01*
X442040Y461295D02*
X452040D01*
X447040Y456295D02*
Y466295D01*
X416640Y461295D02*
X426640D01*
X421640Y456295D02*
Y466295D01*
X391240Y461295D02*
X401240D01*
X396240Y456295D02*
Y466295D01*
X365840Y461295D02*
X375840D01*
X370840Y456295D02*
Y466295D01*
X340440Y461295D02*
X350440D01*
X345440Y456295D02*
Y466295D01*
X315040Y461295D02*
X325040D01*
X320040Y456295D02*
Y466295D01*
X524240Y409295D02*
X564240D01*
X544240Y389295D02*
Y429295D01*
X302740Y446295D02*
X305740D01*
X304240Y444795D02*
Y447795D01*
X344200Y281295D02*
X347200D01*
X345700Y279795D02*
Y282795D01*
X366740Y281295D02*
X369740D01*
X368240Y279795D02*
Y282795D01*
X388200Y281295D02*
X391200D01*
X389700Y279795D02*
Y282795D01*
X300500Y408000D02*
X303500D01*
X302000Y406500D02*
Y409500D01*
X323500Y335000D02*
X326500D01*
X325000Y333500D02*
Y336500D01*
X355370Y281295D02*
X358370D01*
X356870Y279795D02*
Y282795D01*
X377440Y281295D02*
X380440D01*
X378940Y279795D02*
Y282795D01*
X399200Y281295D02*
X402200D01*
X400700Y279795D02*
Y282795D01*
X409980Y281295D02*
X412980D01*
X411480Y279795D02*
Y282795D01*
X421410Y281295D02*
X424410D01*
X422910Y279795D02*
Y282795D01*
M02*
