M48
;Layer_Color=6321
;FILE_FORMAT=4:4
METRIC,LZ
;TYPE=PLATED
T1F00S00C0.3000
T3F00S00C1.0000
T4F00S00C1.0160
%
T01
X003457Y00281295
X0035687
X0036824
X0037894
X003897
X00325Y00335
X004007Y00281295
X0041148
X0042291
X0053024Y00319295
X0056724Y00335295
X00302Y00408
X0030424Y00446295
T03
X0040894Y00462925
X0043434
X0046574
X0049114
X0051654
X0054194
X0056734
X0059274
X0038354
X0035814
X0033274
X0030734
X0028194
X0025654
T04
X0019304Y00462925
X0021844Y00462925
M30
