G04*
G04 #@! TF.GenerationSoftware,Altium Limited,CircuitStudio,1.5.2 (30)*
G04*
G04 Layer_Color=2752767*
%FSLAX44Y44*%
%MOMM*%
G71*
G01*
G75*
%ADD20C,0.2540*%
%ADD21C,0.5000*%
%ADD59C,0.0847*%
%ADD60C,0.3810*%
%ADD61C,0.4064*%
D20*
X845113Y916930D02*
Y932165D01*
X852730D01*
X855269Y929626D01*
Y924548D01*
X852730Y922009D01*
X845113D01*
X850191D02*
X855269Y916930D01*
X862887D02*
X867965D01*
X870505Y919469D01*
Y924548D01*
X867965Y927087D01*
X862887D01*
X860348Y924548D01*
Y919469D01*
X862887Y916930D01*
X875583Y927087D02*
Y919469D01*
X878122Y916930D01*
X885740D01*
Y927087D01*
X890818Y916930D02*
Y927087D01*
X898436D01*
X900975Y924548D01*
Y916930D01*
X916210Y932165D02*
Y916930D01*
X908592D01*
X906053Y919469D01*
Y924548D01*
X908592Y927087D01*
X916210D01*
X855269Y891526D02*
X852730Y894065D01*
X847652D01*
X845113Y891526D01*
Y888987D01*
X847652Y886448D01*
X852730D01*
X855269Y883908D01*
Y881369D01*
X852730Y878830D01*
X847652D01*
X845113Y881369D01*
X860348Y878830D02*
X865426D01*
X862887D01*
Y894065D01*
X860348D01*
X875583Y878830D02*
X880661D01*
X883201Y881369D01*
Y886448D01*
X880661Y888987D01*
X875583D01*
X873044Y886448D01*
Y881369D01*
X875583Y878830D01*
X890818Y891526D02*
Y888987D01*
X888279D01*
X893357D01*
X890818D01*
Y881369D01*
X893357Y878830D01*
X845113Y840730D02*
Y855965D01*
X852730D01*
X855269Y853426D01*
Y848348D01*
X852730Y845808D01*
X845113D01*
X850191D02*
X855269Y840730D01*
X862887D02*
X867965D01*
X870505Y843269D01*
Y848348D01*
X867965Y850887D01*
X862887D01*
X860348Y848348D01*
Y843269D01*
X862887Y840730D01*
X875583Y850887D02*
Y843269D01*
X878122Y840730D01*
X885740D01*
Y850887D01*
X890818Y840730D02*
Y850887D01*
X898436D01*
X900975Y848348D01*
Y840730D01*
X916210Y855965D02*
Y840730D01*
X908592D01*
X906053Y843269D01*
Y848348D01*
X908592Y850887D01*
X916210D01*
X845113Y802630D02*
Y817865D01*
X852730D01*
X855269Y815326D01*
Y810248D01*
X852730Y807709D01*
X845113D01*
X850191D02*
X855269Y802630D01*
X862887D02*
X867965D01*
X870505Y805169D01*
Y810248D01*
X867965Y812787D01*
X862887D01*
X860348Y810248D01*
Y805169D01*
X862887Y802630D01*
X875583Y812787D02*
Y805169D01*
X878122Y802630D01*
X885740D01*
Y812787D01*
X890818Y802630D02*
Y812787D01*
X898436D01*
X900975Y810248D01*
Y802630D01*
X916210Y817865D02*
Y802630D01*
X908592D01*
X906053Y805169D01*
Y810248D01*
X908592Y812787D01*
X916210D01*
X845113Y764530D02*
Y779765D01*
X852730D01*
X855269Y777226D01*
Y772148D01*
X852730Y769609D01*
X845113D01*
X850191D02*
X855269Y764530D01*
X862887D02*
X867965D01*
X870505Y767069D01*
Y772148D01*
X867965Y774687D01*
X862887D01*
X860348Y772148D01*
Y767069D01*
X862887Y764530D01*
X875583Y774687D02*
Y767069D01*
X878122Y764530D01*
X885740D01*
Y774687D01*
X890818Y764530D02*
Y774687D01*
X898436D01*
X900975Y772148D01*
Y764530D01*
X916210Y779765D02*
Y764530D01*
X908592D01*
X906053Y767069D01*
Y772148D01*
X908592Y774687D01*
X916210D01*
X716620Y916930D02*
Y932165D01*
X726777Y916930D01*
Y932165D01*
X731855Y916930D02*
Y932165D01*
X739473D01*
X742012Y929626D01*
Y924548D01*
X739473Y922009D01*
X731855D01*
X747091Y932165D02*
X757247D01*
X752169D01*
Y916930D01*
X762326Y932165D02*
Y916930D01*
Y924548D01*
X772482D01*
Y932165D01*
Y916930D01*
X716620Y878830D02*
Y894065D01*
X724238D01*
X726777Y891526D01*
Y886448D01*
X724238Y883908D01*
X716620D01*
X731855Y894065D02*
X742012D01*
X736934D01*
Y878830D01*
X747091Y894065D02*
Y878830D01*
Y886448D01*
X757247D01*
Y894065D01*
Y878830D01*
X716620Y840730D02*
Y855965D01*
X724238D01*
X726777Y853426D01*
Y848348D01*
X724238Y845808D01*
X716620D01*
X731855Y855965D02*
X742012D01*
X736934D01*
Y840730D01*
X747091Y855965D02*
Y840730D01*
Y848348D01*
X757247D01*
Y855965D01*
Y840730D01*
X716620Y802630D02*
Y817865D01*
X724238D01*
X726777Y815326D01*
Y810248D01*
X724238Y807709D01*
X716620D01*
X731855Y817865D02*
X742012D01*
X736934D01*
Y802630D01*
X747091Y817865D02*
Y802630D01*
Y810248D01*
X757247D01*
Y817865D01*
Y802630D01*
X716620Y764530D02*
Y779765D01*
X724238D01*
X726777Y777226D01*
Y772148D01*
X724238Y769609D01*
X716620D01*
X731855Y779765D02*
X742012D01*
X736934D01*
Y764530D01*
X747091Y779765D02*
Y764530D01*
Y772148D01*
X757247D01*
Y779765D01*
Y764530D01*
X382454Y916930D02*
Y932165D01*
X374837Y924548D01*
X384994D01*
X390072Y916930D02*
Y919469D01*
X392611D01*
Y916930D01*
X390072D01*
X402768Y929626D02*
X405307Y932165D01*
X410385D01*
X412925Y929626D01*
Y919469D01*
X410385Y916930D01*
X405307D01*
X402768Y919469D01*
Y929626D01*
X418003D02*
X420542Y932165D01*
X425620D01*
X428160Y929626D01*
Y919469D01*
X425620Y916930D01*
X420542D01*
X418003Y919469D01*
Y929626D01*
X433238D02*
X435777Y932165D01*
X440856D01*
X443395Y929626D01*
Y919469D01*
X440856Y916930D01*
X435777D01*
X433238Y919469D01*
Y929626D01*
X448473Y916930D02*
Y927087D01*
X451012D01*
X453551Y924548D01*
Y916930D01*
Y924548D01*
X456091Y927087D01*
X458630Y924548D01*
Y916930D01*
X463708D02*
Y927087D01*
X466247D01*
X468787Y924548D01*
Y916930D01*
Y924548D01*
X471326Y927087D01*
X473865Y924548D01*
Y916930D01*
X499257D02*
X494178Y922009D01*
Y927087D01*
X499257Y932165D01*
X506874Y916930D02*
X511953D01*
X509413D01*
Y932165D01*
X506874Y929626D01*
X529727Y932165D02*
X519570D01*
Y924548D01*
X524649Y927087D01*
X527188D01*
X529727Y924548D01*
Y919469D01*
X527188Y916930D01*
X522109D01*
X519570Y919469D01*
X534805Y932165D02*
X544962D01*
Y929626D01*
X534805Y919469D01*
Y916930D01*
X550040D02*
Y919469D01*
X552579D01*
Y916930D01*
X550040D01*
X570354D02*
Y932165D01*
X562736Y924548D01*
X572893D01*
X577971Y929626D02*
X580510Y932165D01*
X585589D01*
X588128Y929626D01*
Y927087D01*
X585589Y924548D01*
X588128Y922009D01*
Y919469D01*
X585589Y916930D01*
X580510D01*
X577971Y919469D01*
Y922009D01*
X580510Y924548D01*
X577971Y927087D01*
Y929626D01*
X580510Y924548D02*
X585589D01*
X593206Y916930D02*
Y927087D01*
X595746D01*
X598285Y924548D01*
Y916930D01*
Y924548D01*
X600824Y927087D01*
X603363Y924548D01*
Y916930D01*
X608441D02*
X613520D01*
X610980D01*
Y927087D01*
X608441D01*
X621137Y916930D02*
X626216D01*
X623676D01*
Y932165D01*
X621137D01*
X633833Y916930D02*
X638912Y922009D01*
Y927087D01*
X633833Y932165D01*
X374837Y891526D02*
X377376Y894065D01*
X382454D01*
X384994Y891526D01*
Y881369D01*
X382454Y878830D01*
X377376D01*
X374837Y881369D01*
Y891526D01*
X390072Y878830D02*
Y881369D01*
X392611D01*
Y878830D01*
X390072D01*
X410385D02*
Y894065D01*
X402768Y886448D01*
X412925D01*
X428160Y894065D02*
X418003D01*
Y886448D01*
X423081Y888987D01*
X425620D01*
X428160Y886448D01*
Y881369D01*
X425620Y878830D01*
X420542D01*
X418003Y881369D01*
X433238Y891526D02*
X435777Y894065D01*
X440856D01*
X443395Y891526D01*
Y881369D01*
X440856Y878830D01*
X435777D01*
X433238Y881369D01*
Y891526D01*
X448473Y878830D02*
Y888987D01*
X451012D01*
X453551Y886448D01*
Y878830D01*
Y886448D01*
X456091Y888987D01*
X458630Y886448D01*
Y878830D01*
X463708D02*
Y888987D01*
X466247D01*
X468787Y886448D01*
Y878830D01*
Y886448D01*
X471326Y888987D01*
X473865Y886448D01*
Y878830D01*
X499257D02*
X494178Y883908D01*
Y888987D01*
X499257Y894065D01*
X506874Y878830D02*
X511953D01*
X509413D01*
Y894065D01*
X506874Y891526D01*
X519570Y894065D02*
X529727D01*
Y891526D01*
X519570Y881369D01*
Y878830D01*
X534805D02*
Y881369D01*
X537344D01*
Y878830D01*
X534805D01*
X547501Y894065D02*
X557658D01*
Y891526D01*
X547501Y881369D01*
Y878830D01*
X572893D02*
X562736D01*
X572893Y888987D01*
Y891526D01*
X570354Y894065D01*
X565275D01*
X562736Y891526D01*
X577971Y878830D02*
Y888987D01*
X580510D01*
X583050Y886448D01*
Y878830D01*
Y886448D01*
X585589Y888987D01*
X588128Y886448D01*
Y878830D01*
X593206D02*
X598285D01*
X595746D01*
Y888987D01*
X593206D01*
X605902Y878830D02*
X610980D01*
X608441D01*
Y894065D01*
X605902D01*
X618598Y878830D02*
X623676Y883908D01*
Y888987D01*
X618598Y894065D01*
X374837Y840730D02*
X379915D01*
X377376D01*
Y855965D01*
X374837Y853426D01*
X387533Y840730D02*
Y843269D01*
X390072D01*
Y840730D01*
X387533D01*
X400229Y853426D02*
X402768Y855965D01*
X407846D01*
X410385Y853426D01*
Y843269D01*
X407846Y840730D01*
X402768D01*
X400229Y843269D01*
Y853426D01*
X415464Y840730D02*
X420542D01*
X418003D01*
Y855965D01*
X415464Y853426D01*
X438316Y855965D02*
X433238Y853426D01*
X428160Y848348D01*
Y843269D01*
X430699Y840730D01*
X435777D01*
X438316Y843269D01*
Y845808D01*
X435777Y848348D01*
X428160D01*
X443395Y840730D02*
Y850887D01*
X445934D01*
X448473Y848348D01*
Y840730D01*
Y848348D01*
X451012Y850887D01*
X453551Y848348D01*
Y840730D01*
X458630D02*
Y850887D01*
X461169D01*
X463708Y848348D01*
Y840730D01*
Y848348D01*
X466247Y850887D01*
X468787Y848348D01*
Y840730D01*
X494178D02*
X489100Y845808D01*
Y850887D01*
X494178Y855965D01*
X509413Y840730D02*
Y855965D01*
X501796Y848348D01*
X511953D01*
X517031Y853426D02*
X519570Y855965D01*
X524649D01*
X527188Y853426D01*
Y843269D01*
X524649Y840730D01*
X519570D01*
X517031Y843269D01*
Y853426D01*
X532266Y840730D02*
Y843269D01*
X534805D01*
Y840730D01*
X532266D01*
X544962Y853426D02*
X547501Y855965D01*
X552579D01*
X555119Y853426D01*
Y843269D01*
X552579Y840730D01*
X547501D01*
X544962Y843269D01*
Y853426D01*
X560197D02*
X562736Y855965D01*
X567814D01*
X570354Y853426D01*
Y843269D01*
X567814Y840730D01*
X562736D01*
X560197Y843269D01*
Y853426D01*
X575432Y840730D02*
Y850887D01*
X577971D01*
X580510Y848348D01*
Y840730D01*
Y848348D01*
X583050Y850887D01*
X585589Y848348D01*
Y840730D01*
X590667D02*
X595745D01*
X593206D01*
Y850887D01*
X590667D01*
X603363Y840730D02*
X608441D01*
X605902D01*
Y855965D01*
X603363D01*
X616059Y840730D02*
X621137Y845808D01*
Y850887D01*
X616059Y855965D01*
X374837Y815326D02*
X377376Y817865D01*
X382454D01*
X384994Y815326D01*
Y805169D01*
X382454Y802630D01*
X377376D01*
X374837Y805169D01*
Y815326D01*
X390072Y802630D02*
Y805169D01*
X392611D01*
Y802630D01*
X390072D01*
X402768Y815326D02*
X405307Y817865D01*
X410385D01*
X412925Y815326D01*
Y812787D01*
X410385Y810248D01*
X407846D01*
X410385D01*
X412925Y807709D01*
Y805169D01*
X410385Y802630D01*
X405307D01*
X402768Y805169D01*
X418003Y815326D02*
X420542Y817865D01*
X425620D01*
X428160Y815326D01*
Y805169D01*
X425620Y802630D01*
X420542D01*
X418003Y805169D01*
Y815326D01*
X433238D02*
X435777Y817865D01*
X440856D01*
X443395Y815326D01*
Y805169D01*
X440856Y802630D01*
X435777D01*
X433238Y805169D01*
Y815326D01*
X448473Y802630D02*
Y812787D01*
X451012D01*
X453551Y810248D01*
Y802630D01*
Y810248D01*
X456091Y812787D01*
X458630Y810248D01*
Y802630D01*
X463708D02*
Y812787D01*
X466247D01*
X468787Y810248D01*
Y802630D01*
Y810248D01*
X471326Y812787D01*
X473865Y810248D01*
Y802630D01*
X499257D02*
X494178Y807709D01*
Y812787D01*
X499257Y817865D01*
X506874Y802630D02*
X511953D01*
X509413D01*
Y817865D01*
X506874Y815326D01*
X519570Y802630D02*
X524649D01*
X522109D01*
Y817865D01*
X519570Y815326D01*
X532266Y802630D02*
Y805169D01*
X534805D01*
Y802630D01*
X532266D01*
X544962Y815326D02*
X547501Y817865D01*
X552579D01*
X555119Y815326D01*
Y812787D01*
X552579Y810248D01*
X555119Y807709D01*
Y805169D01*
X552579Y802630D01*
X547501D01*
X544962Y805169D01*
Y807709D01*
X547501Y810248D01*
X544962Y812787D01*
Y815326D01*
X547501Y810248D02*
X552579D01*
X560197Y802630D02*
X565275D01*
X562736D01*
Y817865D01*
X560197Y815326D01*
X572893Y802630D02*
Y812787D01*
X575432D01*
X577971Y810248D01*
Y802630D01*
Y810248D01*
X580510Y812787D01*
X583050Y810248D01*
Y802630D01*
X588128D02*
X593206D01*
X590667D01*
Y812787D01*
X588128D01*
X600824Y802630D02*
X605902D01*
X603363D01*
Y817865D01*
X600824D01*
X613520Y802630D02*
X618598Y807709D01*
Y812787D01*
X613520Y817865D01*
X374837Y764530D02*
X379915D01*
X377376D01*
Y779765D01*
X374837Y777226D01*
X387533Y764530D02*
Y767069D01*
X390072D01*
Y764530D01*
X387533D01*
X400229Y777226D02*
X402768Y779765D01*
X407846D01*
X410385Y777226D01*
Y767069D01*
X407846Y764530D01*
X402768D01*
X400229Y767069D01*
Y777226D01*
X415464D02*
X418003Y779765D01*
X423081D01*
X425620Y777226D01*
Y767069D01*
X423081Y764530D01*
X418003D01*
X415464Y767069D01*
Y777226D01*
X430699D02*
X433238Y779765D01*
X438316D01*
X440856Y777226D01*
Y767069D01*
X438316Y764530D01*
X433238D01*
X430699Y767069D01*
Y777226D01*
X445934Y764530D02*
Y774687D01*
X448473D01*
X451012Y772148D01*
Y764530D01*
Y772148D01*
X453551Y774687D01*
X456091Y772148D01*
Y764530D01*
X461169D02*
Y774687D01*
X463708D01*
X466247Y772148D01*
Y764530D01*
Y772148D01*
X468787Y774687D01*
X471326Y772148D01*
Y764530D01*
X496717D02*
X491639Y769609D01*
Y774687D01*
X496717Y779765D01*
X504335Y777226D02*
X506874Y779765D01*
X511953D01*
X514492Y777226D01*
Y774687D01*
X511953Y772148D01*
X509413D01*
X511953D01*
X514492Y769609D01*
Y767069D01*
X511953Y764530D01*
X506874D01*
X504335Y767069D01*
X519570D02*
X522109Y764530D01*
X527188D01*
X529727Y767069D01*
Y777226D01*
X527188Y779765D01*
X522109D01*
X519570Y777226D01*
Y774687D01*
X522109Y772148D01*
X529727D01*
X534805Y764530D02*
Y767069D01*
X537344D01*
Y764530D01*
X534805D01*
X547501Y777226D02*
X550040Y779765D01*
X555119D01*
X557658Y777226D01*
Y774687D01*
X555119Y772148D01*
X552579D01*
X555119D01*
X557658Y769609D01*
Y767069D01*
X555119Y764530D01*
X550040D01*
X547501Y767069D01*
X562736Y779765D02*
X572893D01*
Y777226D01*
X562736Y767069D01*
Y764530D01*
X577971D02*
Y774687D01*
X580510D01*
X583050Y772148D01*
Y764530D01*
Y772148D01*
X585589Y774687D01*
X588128Y772148D01*
Y764530D01*
X593206D02*
X598285D01*
X595746D01*
Y774687D01*
X593206D01*
X605902Y764530D02*
X610980D01*
X608441D01*
Y779765D01*
X605902D01*
X618598Y764530D02*
X623676Y769609D01*
Y774687D01*
X618598Y779765D01*
X197592Y739126D02*
X200131Y741665D01*
X205210D01*
X207749Y739126D01*
Y736587D01*
X205210Y734048D01*
X202671D01*
X205210D01*
X207749Y731508D01*
Y728969D01*
X205210Y726430D01*
X200131D01*
X197592Y728969D01*
X222984Y726430D02*
X212827D01*
X222984Y736587D01*
Y739126D01*
X220445Y741665D01*
X215366D01*
X212827Y739126D01*
X243298Y741665D02*
X253454D01*
X248376D01*
Y726430D01*
X261072D02*
X266150D01*
X268689Y728969D01*
Y734048D01*
X266150Y736587D01*
X261072D01*
X258533Y734048D01*
Y728969D01*
X261072Y726430D01*
X276307Y739126D02*
Y736587D01*
X273768D01*
X278846D01*
X276307D01*
Y728969D01*
X278846Y726430D01*
X289003Y736587D02*
X294081D01*
X296620Y734048D01*
Y726430D01*
X289003D01*
X286464Y728969D01*
X289003Y731508D01*
X296620D01*
X301699Y726430D02*
X306777D01*
X304238D01*
Y741665D01*
X301699D01*
X197592Y916930D02*
X202671D01*
X200131D01*
Y932165D01*
X197592Y929626D01*
X207749Y878830D02*
X197592D01*
X207749Y888987D01*
Y891526D01*
X205210Y894065D01*
X200131D01*
X197592Y891526D01*
X207749Y840730D02*
X197592D01*
X207749Y850887D01*
Y853426D01*
X205210Y855965D01*
X200131D01*
X197592Y853426D01*
Y802630D02*
X202671D01*
X200131D01*
Y817865D01*
X197592Y815326D01*
X210288D02*
X212827Y817865D01*
X217906D01*
X220445Y815326D01*
Y812787D01*
X217906Y810248D01*
X215366D01*
X217906D01*
X220445Y807709D01*
Y805169D01*
X217906Y802630D01*
X212827D01*
X210288Y805169D01*
X197592Y764530D02*
X202671D01*
X200131D01*
Y779765D01*
X197592Y777226D01*
X217906Y764530D02*
Y779765D01*
X210288Y772148D01*
X220445D01*
D21*
X297169Y298995D02*
G03*
X324869Y271295I27700J0D01*
G01*
X604286D02*
G03*
X631240Y298249I0J26955D01*
G01*
X734015Y349295D02*
G03*
X761240Y376520I0J27225D01*
G01*
X662940Y349295D02*
G03*
X641260Y340315I0J-30661D01*
G01*
X640220Y339275D02*
G03*
X631240Y317595I21680J-21680D01*
G01*
Y298249D02*
Y317595D01*
X324869Y271295D02*
X604286D01*
X761240Y376520D02*
Y393995D01*
X614240Y510000D02*
X761240D01*
Y393995D02*
Y510000D01*
X662940Y349295D02*
X734015D01*
X640220Y339275D02*
X641260Y340315D01*
X169240Y510000D02*
X614240D01*
X169240Y421295D02*
Y510000D01*
X297169Y298995D02*
Y366295D01*
X242169Y421295D02*
X297169Y366295D01*
X169240Y421295D02*
X242169D01*
D59*
X76244Y770880D02*
G03*
X76244Y770880I-6350J0D01*
G01*
X596973Y462925D02*
G03*
X596973Y462925I-4233J0D01*
G01*
X571573D02*
G03*
X571573Y462925I-4233J0D01*
G01*
X546173D02*
G03*
X546173Y462925I-4233J0D01*
G01*
X520773D02*
G03*
X520773Y462925I-4233J0D01*
G01*
X495373D02*
G03*
X495373Y462925I-4233J0D01*
G01*
X469973D02*
G03*
X469973Y462925I-4233J0D01*
G01*
X260773D02*
G03*
X260773Y462925I-4233J0D01*
G01*
X286173D02*
G03*
X286173Y462925I-4233J0D01*
G01*
X438573D02*
G03*
X438573Y462925I-4233J0D01*
G01*
X413173D02*
G03*
X413173Y462925I-4233J0D01*
G01*
X387773D02*
G03*
X387773Y462925I-4233J0D01*
G01*
X362373D02*
G03*
X362373Y462925I-4233J0D01*
G01*
X336973D02*
G03*
X336973Y462925I-4233J0D01*
G01*
X311573D02*
G03*
X311573Y462925I-4233J0D01*
G01*
X63544Y916930D02*
X69894Y920105D01*
X76244Y916930D01*
X73069Y923280D02*
X76244Y916930D01*
X73069Y923280D02*
X76244Y929630D01*
X69894Y926455D02*
X76244Y929630D01*
X63544D02*
X69894Y926455D01*
X63544Y929630D02*
X66719Y923280D01*
X63544Y916930D02*
X66719Y923280D01*
Y882005D02*
X69894Y878830D01*
X63544Y882005D02*
X66719D01*
X63544D02*
X66719Y885180D01*
X63544Y888355D02*
X66719Y885180D01*
X63544Y888355D02*
X66719D01*
X69894Y891530D01*
X73069Y888355D01*
X76244D01*
X73069Y885180D02*
X76244Y888355D01*
X73069Y885180D02*
X76244Y882005D01*
X73069D02*
X76244D01*
X69894Y878830D02*
X73069Y882005D01*
X69894Y840730D02*
X76244Y853430D01*
X63544D02*
X76244D01*
X63544D02*
X69894Y840730D01*
X63544Y802630D02*
X76244D01*
Y815330D01*
X63544D02*
X76244D01*
X63544Y802630D02*
Y815330D01*
X300007Y442062D02*
X308473D01*
Y450528D01*
X300007D02*
X308473D01*
X300007Y442062D02*
Y450528D01*
X341467Y277062D02*
X349933D01*
Y285528D01*
X341467D02*
X349933D01*
X341467Y277062D02*
Y285528D01*
X364007Y277062D02*
X372473D01*
Y285528D01*
X364007D02*
X372473D01*
X364007Y277062D02*
Y285528D01*
X385467Y277062D02*
X393933D01*
Y285528D01*
X385467D02*
X393933D01*
X385467Y277062D02*
Y285528D01*
X297767Y403767D02*
X306233D01*
Y412233D01*
X297767D02*
X306233D01*
X297767Y403767D02*
Y412233D01*
X320767Y330767D02*
X329233D01*
Y339233D01*
X320767D02*
X329233D01*
X320767Y330767D02*
Y339233D01*
X352637Y277062D02*
X361103D01*
Y285528D01*
X352637D02*
X361103D01*
X352637Y277062D02*
Y285528D01*
X374707Y277062D02*
X383173D01*
Y285528D01*
X374707D02*
X383173D01*
X374707Y277062D02*
Y285528D01*
X396467Y277062D02*
X404933D01*
Y285528D01*
X396467D02*
X404933D01*
X396467Y277062D02*
Y285528D01*
X407247Y277062D02*
X415713D01*
Y285528D01*
X407247D02*
X415713D01*
X407247Y277062D02*
Y285528D01*
X418677Y277062D02*
X427143D01*
Y285528D01*
X418677D02*
X427143D01*
X418677Y277062D02*
Y285528D01*
X526007Y315062D02*
X534473D01*
Y323528D01*
X526007D02*
X534473D01*
X526007Y315062D02*
Y323528D01*
X563007Y331062D02*
X571473D01*
Y339528D01*
X563007D02*
X571473D01*
X563007Y331062D02*
Y339528D01*
X193040Y458692D02*
X197273Y467158D01*
X188807D02*
X197273D01*
X188807D02*
X193040Y458692D01*
X218440Y458692D02*
X222673Y467158D01*
X214207D02*
X222673D01*
X214207D02*
X218440Y458692D01*
X585873Y291678D02*
X587990Y289562D01*
X583757Y291678D02*
X585873D01*
X583757D02*
X585873Y293795D01*
X583757Y295912D02*
X585873Y293795D01*
X583757Y295912D02*
X585873D01*
X587990Y298028D01*
X590107Y295912D01*
X592223D01*
X590107Y293795D02*
X592223Y295912D01*
X590107Y293795D02*
X592223Y291678D01*
X590107D02*
X592223D01*
X587990Y289562D02*
X590107Y291678D01*
X514373D02*
X516490Y289562D01*
X512257Y291678D02*
X514373D01*
X512257D02*
X514373Y293795D01*
X512257Y295912D02*
X514373Y293795D01*
X512257Y295912D02*
X514373D01*
X516490Y298028D01*
X518607Y295912D01*
X520723D01*
X518607Y293795D02*
X520723Y295912D01*
X518607Y293795D02*
X520723Y291678D01*
X518607D02*
X520723D01*
X516490Y289562D02*
X518607Y291678D01*
X686007Y401062D02*
X690240Y403178D01*
X694473Y401062D01*
X692357Y405295D02*
X694473Y401062D01*
X692357Y405295D02*
X694473Y409528D01*
X690240Y407412D02*
X694473Y409528D01*
X686007D02*
X690240Y407412D01*
X686007Y409528D02*
X688123Y405295D01*
X686007Y401062D02*
X688123Y405295D01*
D60*
X46240Y943600D02*
X1031498D01*
X46240Y753100D02*
X1031498D01*
X46240Y715000D02*
X1031498D01*
Y981700D01*
X46240D02*
X1031498D01*
X46240Y715000D02*
Y981700D01*
X833683Y715000D02*
Y981700D01*
X705190Y715000D02*
Y981700D01*
X363407Y715000D02*
Y981700D01*
X186162Y715000D02*
Y981700D01*
D61*
X845113Y973312D02*
Y955030D01*
Y964171D01*
X857301D01*
Y973312D01*
Y955030D01*
X866442D02*
X872536D01*
X875583Y958077D01*
Y964171D01*
X872536Y967218D01*
X866442D01*
X863395Y964171D01*
Y958077D01*
X866442Y955030D01*
X881677D02*
X887771D01*
X884724D01*
Y973312D01*
X881677D01*
X906053Y955030D02*
X899959D01*
X896912Y958077D01*
Y964171D01*
X899959Y967218D01*
X906053D01*
X909100Y964171D01*
Y961124D01*
X896912D01*
X933476Y973312D02*
X945664D01*
X939570D01*
Y955030D01*
X951758Y967218D02*
Y958077D01*
X954805Y955030D01*
X963946D01*
Y951983D01*
X960899Y948936D01*
X957852D01*
X963946Y955030D02*
Y967218D01*
X970040Y948936D02*
Y967218D01*
X979181D01*
X982228Y964171D01*
Y958077D01*
X979181Y955030D01*
X970040D01*
X997464D02*
X991369D01*
X988323Y958077D01*
Y964171D01*
X991369Y967218D01*
X997464D01*
X1000510Y964171D01*
Y961124D01*
X988323D01*
X716620Y955030D02*
Y973312D01*
X725761D01*
X728808Y970265D01*
Y964171D01*
X725761Y961124D01*
X716620D01*
X734902Y955030D02*
X740996D01*
X737950D01*
Y973312D01*
X734902D01*
X753185Y967218D02*
X759279D01*
X762326Y964171D01*
Y955030D01*
X753185D01*
X750137Y958077D01*
X753185Y961124D01*
X762326D01*
X771467Y970265D02*
Y967218D01*
X768420D01*
X774514D01*
X771467D01*
Y958077D01*
X774514Y955030D01*
X792796D02*
X786702D01*
X783655Y958077D01*
Y964171D01*
X786702Y967218D01*
X792796D01*
X795843Y964171D01*
Y961124D01*
X783655D01*
X814125Y973312D02*
Y955030D01*
X804984D01*
X801937Y958077D01*
Y964171D01*
X804984Y967218D01*
X814125D01*
X387025Y973312D02*
X374837D01*
Y964171D01*
X380931D01*
X374837D01*
Y955030D01*
X393119D02*
X399213D01*
X396166D01*
Y967218D01*
X393119D01*
X408354Y955030D02*
Y967218D01*
X417495D01*
X420542Y964171D01*
Y955030D01*
X426636D02*
X432730D01*
X429683D01*
Y967218D01*
X426636D01*
X441871Y955030D02*
X451012D01*
X454059Y958077D01*
X451012Y961124D01*
X444918D01*
X441871Y964171D01*
X444918Y967218D01*
X454059D01*
X460153Y973312D02*
Y955030D01*
Y964171D01*
X463200Y967218D01*
X469294D01*
X472341Y964171D01*
Y955030D01*
X487576D02*
X481482D01*
X478435Y958077D01*
Y964171D01*
X481482Y967218D01*
X487576D01*
X490624Y964171D01*
Y961124D01*
X478435D01*
X508906Y973312D02*
Y955030D01*
X499765D01*
X496717Y958077D01*
Y964171D01*
X499765Y967218D01*
X508906D01*
X533282Y973312D02*
Y955030D01*
Y964171D01*
X545470D01*
Y973312D01*
Y955030D01*
X554611D02*
X560705D01*
X563752Y958077D01*
Y964171D01*
X560705Y967218D01*
X554611D01*
X551564Y964171D01*
Y958077D01*
X554611Y955030D01*
X569846D02*
X575940D01*
X572893D01*
Y973312D01*
X569846D01*
X594222Y955030D02*
X588128D01*
X585081Y958077D01*
Y964171D01*
X588128Y967218D01*
X594222D01*
X597269Y964171D01*
Y961124D01*
X585081D01*
X633833Y970265D02*
X630786Y973312D01*
X624692D01*
X621645Y970265D01*
Y967218D01*
X624692Y964171D01*
X630786D01*
X633833Y961124D01*
Y958077D01*
X630786Y955030D01*
X624692D01*
X621645Y958077D01*
X639927Y955030D02*
X646021D01*
X642974D01*
Y967218D01*
X639927D01*
X655162D02*
X667350D01*
X655162Y955030D01*
X667350D01*
X682585D02*
X676491D01*
X673444Y958077D01*
Y964171D01*
X676491Y967218D01*
X682585D01*
X685632Y964171D01*
Y961124D01*
X673444D01*
X197592Y973312D02*
Y955030D01*
Y964171D01*
X209780D01*
Y973312D01*
Y955030D01*
X215874D02*
X221968D01*
X218921D01*
Y967218D01*
X215874D01*
X234156Y970265D02*
Y967218D01*
X231109D01*
X237204D01*
X234156D01*
Y958077D01*
X237204Y955030D01*
X276815Y970265D02*
X273768Y973312D01*
X267674D01*
X264627Y970265D01*
Y958077D01*
X267674Y955030D01*
X273768D01*
X276815Y958077D01*
X285956Y955030D02*
X292050D01*
X295097Y958077D01*
Y964171D01*
X292050Y967218D01*
X285956D01*
X282909Y964171D01*
Y958077D01*
X285956Y955030D01*
X301191Y967218D02*
Y958077D01*
X304238Y955030D01*
X313379D01*
Y967218D01*
X319473Y955030D02*
Y967218D01*
X328614D01*
X331661Y964171D01*
Y955030D01*
X340802Y970265D02*
Y967218D01*
X337755D01*
X343849D01*
X340802D01*
Y958077D01*
X343849Y955030D01*
X81288Y970265D02*
X78241Y973312D01*
X72147D01*
X69100Y970265D01*
Y967218D01*
X72147Y964171D01*
X78241D01*
X81288Y961124D01*
Y958077D01*
X78241Y955030D01*
X72147D01*
X69100Y958077D01*
X87382Y967218D02*
Y958077D01*
X90429Y955030D01*
X99570D01*
Y951983D01*
X96523Y948936D01*
X93476D01*
X99570Y955030D02*
Y967218D01*
X105664Y955030D02*
Y967218D01*
X108711D01*
X111758Y964171D01*
Y955030D01*
Y964171D01*
X114805Y967218D01*
X117852Y964171D01*
Y955030D01*
X123946Y973312D02*
Y955030D01*
X133087D01*
X136134Y958077D01*
Y961124D01*
Y964171D01*
X133087Y967218D01*
X123946D01*
X145275Y955030D02*
X151369D01*
X154416Y958077D01*
Y964171D01*
X151369Y967218D01*
X145275D01*
X142228Y964171D01*
Y958077D01*
X145275Y955030D01*
X160510D02*
X166604D01*
X163557D01*
Y973312D01*
X160510D01*
M02*
