G04*
G04 #@! TF.GenerationSoftware,Altium Limited,CircuitStudio,1.5.2 (30)*
G04*
G04 Layer_Physical_Order=1*
G04 Layer_Color=11767835*
%FSLAX44Y44*%
%MOMM*%
G71*
G01*
G75*
%ADD10C,0.2610*%
%ADD11R,0.4000X1.4000*%
%ADD12R,2.0000X2.0000*%
%ADD13R,1.5000X1.1500*%
%ADD14R,1.1500X2.2000*%
%ADD15R,1.1600X1.2000*%
%ADD16R,1.1600X1.2500*%
%ADD17R,0.9500X2.5000*%
%ADD18R,0.8000X1.2400*%
%ADD19R,1.3000X1.6000*%
%ADD20C,0.2540*%
%ADD21C,0.5000*%
%ADD22C,1.5240*%
%ADD23R,1.5240X1.5240*%
%ADD24R,13.0000X14.0000*%
%ADD25O,1.0500X1.8500*%
%ADD26R,1.7780X1.7780*%
%ADD27C,1.7780*%
%ADD28C,0.6000*%
G36*
X615240Y505397D02*
X615240Y281295D01*
X576189Y281287D01*
X576040Y282557D01*
Y293145D01*
X553440D01*
Y282552D01*
X553440Y282495D01*
X553303Y281282D01*
X551176Y281281D01*
X551040Y282551D01*
Y293145D01*
X528440D01*
Y282547D01*
X528440Y282495D01*
X528315Y281276D01*
X427296Y281255D01*
X427264Y281295D01*
X426932Y282961D01*
X426699Y283310D01*
X427378Y284580D01*
X427970D01*
Y299225D01*
X430293D01*
X431265Y299628D01*
X431667Y300600D01*
Y382418D01*
X431265Y383390D01*
X430293Y383793D01*
X338200D01*
X337228Y383390D01*
X336825Y382418D01*
Y300600D01*
X337228Y299628D01*
X338200Y299225D01*
X340430D01*
Y284580D01*
X341232D01*
X341911Y283310D01*
X341678Y282961D01*
X341346Y281295D01*
X341299Y281237D01*
X312711Y281231D01*
X309732Y284719D01*
X307336Y288629D01*
X305581Y292867D01*
X304510Y297327D01*
X304157Y301810D01*
X304240Y301899D01*
X304240D01*
X304240Y301899D01*
X304240Y371295D01*
X259713Y415822D01*
X260199Y416995D01*
X264090D01*
Y425645D01*
X256940D01*
Y420254D01*
X255767Y419768D01*
X249240Y426295D01*
X174240D01*
Y506295D01*
X614342D01*
X615240Y505397D01*
D02*
G37*
%LPC*%
G36*
X472200Y312150D02*
X466800D01*
Y299000D01*
X472200D01*
Y312150D01*
D02*
G37*
G36*
X325000Y339354D02*
X323334Y339022D01*
X321922Y338078D01*
X320978Y336666D01*
X320646Y335000D01*
X320978Y333334D01*
X321922Y331922D01*
X323334Y330978D01*
X323710Y330903D01*
Y325870D01*
X319230D01*
Y310830D01*
X333370D01*
Y325870D01*
X328890D01*
Y333136D01*
X329022Y333334D01*
X329354Y335000D01*
X329022Y336666D01*
X328078Y338078D01*
X326666Y339022D01*
X325000Y339354D01*
D02*
G37*
G36*
X568540Y318645D02*
X565890D01*
Y310995D01*
X568540D01*
Y318645D01*
D02*
G37*
G36*
X465500Y312150D02*
X460100D01*
Y299000D01*
X465500D01*
Y312150D01*
D02*
G37*
G36*
X588640Y304316D02*
Y294445D01*
X594596D01*
Y297795D01*
X594371Y299505D01*
X593711Y301098D01*
X592662Y302466D01*
X591293Y303516D01*
X589700Y304176D01*
X588640Y304316D01*
D02*
G37*
G36*
X321600Y309150D02*
X315200D01*
Y297500D01*
X321600D01*
Y309150D01*
D02*
G37*
G36*
X329300D02*
X322900D01*
Y297500D01*
X329300D01*
Y309150D01*
D02*
G37*
G36*
X565890Y327595D02*
Y319945D01*
X568540D01*
Y327595D01*
X565890D01*
D02*
G37*
G36*
X472200Y423950D02*
X465800D01*
Y412300D01*
X472200D01*
Y423950D01*
D02*
G37*
G36*
X343650Y418950D02*
X335500D01*
Y412550D01*
X343650D01*
Y418950D01*
D02*
G37*
G36*
X353100D02*
X344950D01*
Y412550D01*
X353100D01*
Y418950D01*
D02*
G37*
G36*
X464500Y423950D02*
X458100D01*
Y412300D01*
X464500D01*
Y423950D01*
D02*
G37*
G36*
Y411000D02*
X458100D01*
Y399350D01*
X464500D01*
Y411000D01*
D02*
G37*
G36*
X472200D02*
X465800D01*
Y399350D01*
X472200D01*
Y411000D01*
D02*
G37*
G36*
X333370Y415620D02*
X319230D01*
Y410940D01*
X305171D01*
X305079Y411078D01*
X303666Y412022D01*
X302000Y412354D01*
X300334Y412022D01*
X298922Y411078D01*
X297978Y409666D01*
X297646Y408000D01*
X297978Y406334D01*
X298922Y404921D01*
X300334Y403978D01*
X302000Y403646D01*
X303666Y403978D01*
X305079Y404921D01*
X305639Y405760D01*
X319230D01*
Y401080D01*
X333370D01*
Y415620D01*
D02*
G37*
G36*
X321600Y296200D02*
X315200D01*
Y284550D01*
X321600D01*
Y296200D01*
D02*
G37*
G36*
X329300D02*
X322900D01*
Y284550D01*
X329300D01*
Y296200D01*
D02*
G37*
G36*
X465500Y297700D02*
X460100D01*
Y284550D01*
X465500D01*
Y297700D01*
D02*
G37*
G36*
X594596Y293145D02*
X588640D01*
Y283274D01*
X589700Y283414D01*
X591293Y284074D01*
X592662Y285123D01*
X593711Y286492D01*
X594371Y288085D01*
X594596Y289795D01*
Y293145D01*
D02*
G37*
G36*
X515840D02*
X509883D01*
Y289795D01*
X510109Y288085D01*
X510769Y286492D01*
X511819Y285123D01*
X513187Y284074D01*
X514780Y283414D01*
X515840Y283274D01*
Y293145D01*
D02*
G37*
G36*
X523097D02*
X517140D01*
Y283274D01*
X518200Y283414D01*
X519793Y284074D01*
X521161Y285123D01*
X522211Y286492D01*
X522871Y288085D01*
X523097Y289795D01*
Y293145D01*
D02*
G37*
G36*
X587340D02*
X581384D01*
Y289795D01*
X581609Y288085D01*
X582269Y286492D01*
X583318Y285123D01*
X584687Y284074D01*
X586280Y283414D01*
X587340Y283274D01*
Y293145D01*
D02*
G37*
G36*
X472200Y297700D02*
X466800D01*
Y284550D01*
X472200D01*
Y297700D01*
D02*
G37*
G36*
X564090Y305095D02*
X553440D01*
Y294445D01*
X564090D01*
Y305095D01*
D02*
G37*
G36*
X576040D02*
X565390D01*
Y294445D01*
X576040D01*
Y305095D01*
D02*
G37*
G36*
X587340Y304316D02*
X586280Y304176D01*
X584687Y303516D01*
X583318Y302466D01*
X582269Y301098D01*
X581609Y299505D01*
X581384Y297795D01*
Y294445D01*
X587340D01*
Y304316D01*
D02*
G37*
G36*
X551040Y305095D02*
X540390D01*
Y294445D01*
X551040D01*
Y305095D01*
D02*
G37*
G36*
X515840Y304316D02*
X514780Y304176D01*
X513187Y303516D01*
X511819Y302466D01*
X510769Y301098D01*
X510109Y299505D01*
X509883Y297795D01*
Y294445D01*
X515840D01*
Y304316D01*
D02*
G37*
G36*
X517140D02*
Y294445D01*
X523097D01*
Y297795D01*
X522871Y299505D01*
X522211Y301098D01*
X521161Y302466D01*
X519793Y303516D01*
X518200Y304176D01*
X517140Y304316D01*
D02*
G37*
G36*
X539090Y305095D02*
X528440D01*
Y294445D01*
X539090D01*
Y305095D01*
D02*
G37*
G36*
X421450Y418950D02*
X413300D01*
Y412550D01*
X421450D01*
Y418950D01*
D02*
G37*
G36*
X306690Y462275D02*
X298429D01*
X298650Y460596D01*
X299548Y458427D01*
X300978Y456563D01*
X302841Y455133D01*
X305011Y454235D01*
X306690Y454014D01*
Y462275D01*
D02*
G37*
G36*
X592090Y462275D02*
X583829D01*
X584050Y460596D01*
X584948Y458427D01*
X586378Y456563D01*
X588242Y455133D01*
X590411Y454235D01*
X592090Y454014D01*
Y462275D01*
D02*
G37*
G36*
X601651D02*
X593390D01*
Y454014D01*
X595069Y454235D01*
X597239Y455133D01*
X599102Y456563D01*
X600532Y458427D01*
X601430Y460596D01*
X601651Y462275D01*
D02*
G37*
G36*
X474660D02*
X466390D01*
Y454005D01*
X474660D01*
Y462275D01*
D02*
G37*
G36*
X383540Y471892D02*
X381219Y471586D01*
X379057Y470690D01*
X377200Y469266D01*
X375775Y467408D01*
X374879Y465246D01*
X374573Y462925D01*
X374879Y460604D01*
X375775Y458442D01*
X377200Y456585D01*
X379057Y455160D01*
X381219Y454264D01*
X383540Y453958D01*
X385861Y454264D01*
X388023Y455160D01*
X389880Y456585D01*
X391305Y458442D01*
X392201Y460604D01*
X392507Y462925D01*
X392201Y465246D01*
X391305Y467408D01*
X389880Y469266D01*
X388023Y470690D01*
X385861Y471586D01*
X383540Y471892D01*
D02*
G37*
G36*
X408940D02*
X406619Y471586D01*
X404457Y470690D01*
X402600Y469266D01*
X401175Y467408D01*
X400279Y465246D01*
X399973Y462925D01*
X400279Y460604D01*
X401175Y458442D01*
X402600Y456585D01*
X404457Y455160D01*
X406619Y454264D01*
X408940Y453958D01*
X411261Y454264D01*
X413423Y455160D01*
X415280Y456585D01*
X416705Y458442D01*
X417601Y460604D01*
X417907Y462925D01*
X417601Y465246D01*
X416705Y467408D01*
X415280Y469266D01*
X413423Y470690D01*
X411261Y471586D01*
X408940Y471892D01*
D02*
G37*
G36*
X465090Y462275D02*
X456820D01*
Y454005D01*
X465090D01*
Y462275D01*
D02*
G37*
G36*
X316251Y462275D02*
X307990D01*
Y454014D01*
X309669Y454235D01*
X311838Y455133D01*
X313702Y456563D01*
X315132Y458427D01*
X316030Y460596D01*
X316251Y462275D01*
D02*
G37*
G36*
X593390Y471836D02*
Y463575D01*
X601651D01*
X601430Y465254D01*
X600532Y467424D01*
X599102Y469287D01*
X597239Y470717D01*
X595069Y471615D01*
X593390Y471836D01*
D02*
G37*
G36*
X306690D02*
X305011Y471615D01*
X302841Y470717D01*
X300978Y469287D01*
X299548Y467424D01*
X298650Y465254D01*
X298429Y463575D01*
X306690D01*
Y471836D01*
D02*
G37*
G36*
X307990D02*
Y463575D01*
X316251D01*
X316030Y465254D01*
X315132Y467424D01*
X313702Y469287D01*
X311838Y470717D01*
X309669Y471615D01*
X307990Y471836D01*
D02*
G37*
G36*
X592090D02*
X590411Y471615D01*
X588242Y470717D01*
X586378Y469287D01*
X584948Y467424D01*
X584050Y465254D01*
X583829Y463575D01*
X592090D01*
Y471836D01*
D02*
G37*
G36*
X443230Y471815D02*
X425450D01*
Y454035D01*
X443230D01*
Y471815D01*
D02*
G37*
G36*
X465090Y471845D02*
X456820D01*
Y463575D01*
X465090D01*
Y471845D01*
D02*
G37*
G36*
X474660D02*
X466390D01*
Y463575D01*
X474660D01*
Y471845D01*
D02*
G37*
G36*
X358140Y471892D02*
X355819Y471586D01*
X353657Y470690D01*
X351800Y469266D01*
X350375Y467408D01*
X349479Y465246D01*
X349173Y462925D01*
X349479Y460604D01*
X350375Y458442D01*
X351800Y456585D01*
X353657Y455160D01*
X355819Y454264D01*
X358140Y453958D01*
X360461Y454264D01*
X362623Y455160D01*
X364480Y456585D01*
X365905Y458442D01*
X366801Y460604D01*
X367107Y462925D01*
X366801Y465246D01*
X365905Y467408D01*
X364480Y469266D01*
X362623Y470690D01*
X360461Y471586D01*
X358140Y471892D01*
D02*
G37*
G36*
X353100Y426650D02*
X344950D01*
Y420250D01*
X353100D01*
Y426650D01*
D02*
G37*
G36*
X430900D02*
X422750D01*
Y420250D01*
X430900D01*
Y426650D01*
D02*
G37*
G36*
X264090Y435595D02*
X256940D01*
Y426945D01*
X264090D01*
Y435595D01*
D02*
G37*
G36*
X421450Y426650D02*
X413300D01*
Y420250D01*
X421450D01*
Y426650D01*
D02*
G37*
G36*
X430900Y418950D02*
X422750D01*
Y412550D01*
X430900D01*
Y418950D01*
D02*
G37*
G36*
X272540Y425645D02*
X265390D01*
Y416995D01*
X272540D01*
Y425645D01*
D02*
G37*
G36*
X343650Y426650D02*
X335500D01*
Y420250D01*
X343650D01*
Y426650D01*
D02*
G37*
G36*
X272540Y435595D02*
X265390D01*
Y426945D01*
X272540D01*
Y435595D01*
D02*
G37*
G36*
X256540Y471892D02*
X254219Y471586D01*
X252057Y470690D01*
X250200Y469266D01*
X248775Y467408D01*
X247879Y465246D01*
X247573Y462925D01*
X247879Y460604D01*
X248775Y458442D01*
X250200Y456585D01*
X252057Y455160D01*
X254219Y454264D01*
X256540Y453958D01*
X258861Y454264D01*
X261023Y455160D01*
X262880Y456585D01*
X264305Y458442D01*
X265201Y460604D01*
X265507Y462925D01*
X265201Y465246D01*
X264305Y467408D01*
X262880Y469266D01*
X261023Y470690D01*
X258861Y471586D01*
X256540Y471892D01*
D02*
G37*
G36*
X281940D02*
X279619Y471586D01*
X277457Y470690D01*
X275600Y469266D01*
X274175Y467408D01*
X273279Y465246D01*
X272973Y462925D01*
X273279Y460604D01*
X274175Y458442D01*
X275600Y456585D01*
X277457Y455160D01*
X279619Y454264D01*
X281940Y453958D01*
X284261Y454264D01*
X286423Y455160D01*
X288280Y456585D01*
X289705Y458442D01*
X290601Y460604D01*
X290907Y462925D01*
X290601Y465246D01*
X289705Y467408D01*
X288280Y469266D01*
X286423Y470690D01*
X284261Y471586D01*
X281940Y471892D01*
D02*
G37*
G36*
X332740D02*
X330419Y471586D01*
X328257Y470690D01*
X326400Y469266D01*
X324975Y467408D01*
X324079Y465246D01*
X323773Y462925D01*
X324079Y460604D01*
X324975Y458442D01*
X326400Y456585D01*
X328257Y455160D01*
X330419Y454264D01*
X332740Y453958D01*
X335061Y454264D01*
X337223Y455160D01*
X339080Y456585D01*
X340505Y458442D01*
X341401Y460604D01*
X341707Y462925D01*
X341401Y465246D01*
X340505Y467408D01*
X339080Y469266D01*
X337223Y470690D01*
X335061Y471586D01*
X332740Y471892D01*
D02*
G37*
G36*
X228600Y473085D02*
X208280D01*
Y452765D01*
X228600D01*
Y473085D01*
D02*
G37*
G36*
X304240Y450649D02*
X302574Y450317D01*
X301161Y449373D01*
X300218Y447961D01*
X299886Y446295D01*
X300218Y444629D01*
X301161Y443216D01*
X301650Y442890D01*
Y440368D01*
X292683Y431401D01*
X291510Y431887D01*
Y435565D01*
X275970D01*
Y417025D01*
X291510D01*
Y423759D01*
X292231Y423902D01*
X293071Y424464D01*
X306071Y437464D01*
X306633Y438304D01*
X306830Y439295D01*
Y442890D01*
X307318Y443216D01*
X308262Y444629D01*
X308594Y446295D01*
X308262Y447961D01*
X307318Y449373D01*
X305906Y450317D01*
X304240Y450649D01*
D02*
G37*
G36*
X567340Y471892D02*
X565019Y471586D01*
X562857Y470690D01*
X561000Y469266D01*
X559575Y467408D01*
X558679Y465246D01*
X558373Y462925D01*
X558679Y460604D01*
X559575Y458442D01*
X559960Y457939D01*
Y446681D01*
X558787Y446195D01*
X548331Y456651D01*
X549705Y458442D01*
X550601Y460604D01*
X550907Y462925D01*
X550601Y465246D01*
X549705Y467408D01*
X548280Y469266D01*
X546423Y470690D01*
X544261Y471586D01*
X541940Y471892D01*
X539619Y471586D01*
X537457Y470690D01*
X535600Y469266D01*
X534175Y467408D01*
X533279Y465246D01*
X532973Y462925D01*
X533279Y460604D01*
X534175Y458442D01*
X535600Y456585D01*
X537457Y455160D01*
X539619Y454264D01*
X541940Y453958D01*
X543494Y454163D01*
X556150Y441507D01*
Y343522D01*
Y343118D01*
X555572Y342560D01*
X555468Y342555D01*
X555115Y342538D01*
X554801Y343327D01*
X554788Y343459D01*
X554786Y343488D01*
X554531Y346075D01*
X553407Y349779D01*
X551583Y353191D01*
X549128Y356183D01*
X549096Y356151D01*
X549096Y356152D01*
X515456Y389792D01*
X515361Y389855D01*
X512596Y393225D01*
X510488Y397168D01*
X509190Y401446D01*
X508763Y405784D01*
X508785Y405896D01*
Y438479D01*
X508763Y438591D01*
X509190Y442928D01*
X510488Y447207D01*
X512596Y451150D01*
X515060Y454153D01*
X516540Y453958D01*
X518861Y454264D01*
X521023Y455160D01*
X522880Y456585D01*
X524305Y458442D01*
X525201Y460604D01*
X525507Y462925D01*
X525201Y465246D01*
X524305Y467408D01*
X522880Y469266D01*
X521023Y470690D01*
X518861Y471586D01*
X516540Y471892D01*
X514219Y471586D01*
X512057Y470690D01*
X510200Y469266D01*
X508775Y467408D01*
X507879Y465246D01*
X507573Y462925D01*
X507879Y460604D01*
X508775Y458442D01*
X510200Y456585D01*
X510203Y456548D01*
X508858Y454973D01*
X506557Y451218D01*
X504872Y447150D01*
X504493Y445572D01*
X503187D01*
X502808Y447150D01*
X501123Y451218D01*
X498822Y454973D01*
X497477Y456548D01*
X497480Y456585D01*
X498905Y458442D01*
X499801Y460604D01*
X500107Y462925D01*
X499801Y465246D01*
X498905Y467408D01*
X497480Y469266D01*
X495623Y470690D01*
X493461Y471586D01*
X491140Y471892D01*
X488819Y471586D01*
X486657Y470690D01*
X484800Y469266D01*
X483375Y467408D01*
X482479Y465246D01*
X482173Y462925D01*
X482479Y460604D01*
X483375Y458442D01*
X484800Y456585D01*
X486657Y455160D01*
X488819Y454264D01*
X491140Y453958D01*
X492620Y454153D01*
X495084Y451150D01*
X497192Y447207D01*
X498490Y442928D01*
X498917Y438591D01*
X498895Y438479D01*
Y405896D01*
X498844D01*
X499247Y400778D01*
X500445Y395786D01*
X502410Y391043D01*
X505092Y386666D01*
X508426Y382762D01*
X508426Y382762D01*
X508426Y382762D01*
X508498Y382762D01*
X542103Y349157D01*
X542103Y349157D01*
X542095Y349150D01*
X542842Y348033D01*
X543104Y346714D01*
X543115D01*
Y327565D01*
X535970D01*
Y321885D01*
X533645D01*
X533318Y322373D01*
X531906Y323317D01*
X530240Y323649D01*
X528574Y323317D01*
X527161Y322373D01*
X526218Y320961D01*
X525886Y319295D01*
X526218Y317629D01*
X527161Y316216D01*
X528574Y315273D01*
X530240Y314941D01*
X531906Y315273D01*
X533318Y316216D01*
X533645Y316705D01*
X535970D01*
Y311025D01*
X561940D01*
Y310995D01*
X564590D01*
Y319295D01*
Y327595D01*
X561940D01*
X561330Y328612D01*
Y334804D01*
X562600Y335485D01*
X562773Y335370D01*
X562912Y335164D01*
X563218Y333629D01*
X564161Y332216D01*
X565574Y331273D01*
X567240Y330941D01*
X568906Y331273D01*
X570318Y332216D01*
X571262Y333629D01*
X571594Y335295D01*
X571262Y336961D01*
X570318Y338373D01*
X568906Y339317D01*
X567240Y339649D01*
X566664Y339534D01*
X565140Y341058D01*
Y453285D01*
X566095Y454122D01*
X567340Y453958D01*
X569661Y454264D01*
X571823Y455160D01*
X573680Y456585D01*
X575105Y458442D01*
X576001Y460604D01*
X576307Y462925D01*
X576001Y465246D01*
X575105Y467408D01*
X573680Y469266D01*
X571823Y470690D01*
X569661Y471586D01*
X567340Y471892D01*
D02*
G37*
G36*
X193040Y473173D02*
X190388Y472823D01*
X187916Y471800D01*
X185794Y470171D01*
X184165Y468049D01*
X183141Y465577D01*
X182792Y462925D01*
X183141Y460273D01*
X184165Y457801D01*
X185794Y455679D01*
X187916Y454050D01*
X190388Y453027D01*
X193040Y452677D01*
X195692Y453027D01*
X198164Y454050D01*
X200286Y455679D01*
X201915Y457801D01*
X202938Y460273D01*
X203288Y462925D01*
X202938Y465577D01*
X201915Y468049D01*
X200286Y470171D01*
X198164Y471800D01*
X195692Y472823D01*
X193040Y473173D01*
D02*
G37*
%LPD*%
D10*
X552240Y342224D02*
G03*
X547240Y354295I-17071J0D01*
G01*
X513600Y456439D02*
G03*
X506160Y438479I17960J-17960D01*
G01*
Y405896D02*
G03*
X513600Y387935I25400J0D01*
G01*
X545740Y346714D02*
G03*
X543959Y351014I-6081J0D01*
G01*
X501520Y438479D02*
G03*
X494081Y456439I-25400J0D01*
G01*
X501520Y405896D02*
G03*
X510318Y384655I30040J0D01*
G01*
X513600Y456439D02*
X516540Y459380D01*
X506160Y405896D02*
Y438479D01*
X513600Y387935D02*
X547240Y354295D01*
X552240Y319295D02*
Y342224D01*
X510318Y384655D02*
X543959Y351014D01*
X491140Y459380D02*
X494081Y456439D01*
X501520Y405896D02*
Y438479D01*
X545740Y319295D02*
Y346714D01*
D11*
X539240Y319295D02*
D03*
X545740D02*
D03*
X552240D02*
D03*
X558740D02*
D03*
X565240D02*
D03*
D12*
X539740Y293795D02*
D03*
X564740D02*
D03*
D13*
X344300Y419600D02*
D03*
X422100D02*
D03*
D14*
X465150Y411650D02*
D03*
X322250Y296850D02*
D03*
D15*
X326300Y408350D02*
D03*
D16*
Y318350D02*
D03*
D17*
X466150Y298350D02*
D03*
D18*
X345700Y292050D02*
D03*
X356700D02*
D03*
X367700D02*
D03*
X378700D02*
D03*
X389700D02*
D03*
X400700D02*
D03*
X411700D02*
D03*
X422700D02*
D03*
D19*
X283740Y426295D02*
D03*
X264740D02*
D03*
D20*
X562550Y339985D02*
Y458135D01*
X567340Y462925D01*
X562550Y339985D02*
X567240Y335295D01*
X558740Y319295D02*
Y442580D01*
X541940Y459380D02*
X558740Y442580D01*
X558700Y316335D02*
X558740Y316295D01*
X530240Y319295D02*
X539240D01*
X422700Y282400D02*
Y292050D01*
X400700Y280670D02*
Y292050D01*
X378700Y282400D02*
Y292050D01*
X356700Y280840D02*
Y292050D01*
X345700Y281295D02*
Y292050D01*
X389700Y281295D02*
Y292050D01*
X326300Y318350D02*
Y333700D01*
X325000Y335000D02*
X326300Y333700D01*
X302350Y408350D02*
X326300D01*
X302000Y408000D02*
X302350Y408350D01*
X411700Y281295D02*
Y292050D01*
X368240Y281295D02*
Y291510D01*
X367700Y292050D02*
X368240Y291510D01*
X283740Y426295D02*
X291240D01*
X304240Y439295D01*
Y446295D01*
D21*
X297169Y298995D02*
G03*
X324869Y271295I27700J0D01*
G01*
X604286D02*
G03*
X631240Y298249I0J26955D01*
G01*
X734015Y349295D02*
G03*
X761240Y376520I0J27225D01*
G01*
X662940Y349295D02*
G03*
X641260Y340315I0J-30661D01*
G01*
X640220Y339275D02*
G03*
X631240Y317595I21680J-21680D01*
G01*
Y298249D02*
Y317595D01*
X324869Y271295D02*
X604286D01*
X761240Y376520D02*
Y393995D01*
X614240Y510000D02*
X761240D01*
Y393995D02*
Y510000D01*
X662940Y349295D02*
X734015D01*
X640220Y339275D02*
X641260Y340315D01*
X169240Y510000D02*
X614240D01*
X169240Y421295D02*
Y510000D01*
X297169Y298995D02*
Y366295D01*
X242169Y421295D02*
X297169Y366295D01*
X169240Y421295D02*
X242169D01*
D22*
X307340Y462925D02*
D03*
X332740D02*
D03*
X358140D02*
D03*
X383540D02*
D03*
X408940D02*
D03*
X281940D02*
D03*
X256540D02*
D03*
X491140D02*
D03*
X516540D02*
D03*
X541940D02*
D03*
X567340D02*
D03*
X592740D02*
D03*
D23*
X434340D02*
D03*
X465740D02*
D03*
D24*
X690240Y438545D02*
D03*
D25*
X516490Y293795D02*
D03*
X587990D02*
D03*
D26*
X218440Y462925D02*
D03*
D27*
X193040Y462925D02*
D03*
D28*
X567240Y335295D02*
D03*
X530240Y319295D02*
D03*
X422910Y281295D02*
D03*
X411480D02*
D03*
X400700D02*
D03*
X378940D02*
D03*
X356870D02*
D03*
X325000Y335000D02*
D03*
X302000Y408000D02*
D03*
X389700Y281295D02*
D03*
X368240D02*
D03*
X345700D02*
D03*
X304240Y446295D02*
D03*
M02*
