G04*
G04 #@! TF.GenerationSoftware,Altium Limited,CircuitStudio,1.5.2 (30)*
G04*
G04 Layer_Color=11767835*
%FSLAX44Y44*%
%MOMM*%
G71*
G01*
G75*
%ADD11R,0.4000X1.4000*%
%ADD12R,2.0000X2.0000*%
%ADD13R,1.5000X1.1500*%
%ADD14R,1.1500X2.2000*%
%ADD15R,1.1600X1.2000*%
%ADD16R,1.1600X1.2500*%
%ADD17R,0.9500X2.5000*%
%ADD18R,0.8000X1.2400*%
%ADD19R,1.3000X1.6000*%
%ADD21C,0.5000*%
%ADD22C,1.5240*%
%ADD23R,1.5240X1.5240*%
%ADD24R,13.0000X14.0000*%
%ADD25O,1.0500X1.8500*%
%ADD26R,1.7780X1.7780*%
%ADD27C,1.7780*%
D11*
X539240Y319295D02*
D03*
X545740D02*
D03*
X552240D02*
D03*
X558740D02*
D03*
X565240D02*
D03*
D12*
X539740Y293795D02*
D03*
X564740D02*
D03*
D13*
X344300Y419600D02*
D03*
X422100D02*
D03*
D14*
X465150Y411650D02*
D03*
X322250Y296850D02*
D03*
D15*
X326300Y408350D02*
D03*
D16*
Y318350D02*
D03*
D17*
X466150Y298350D02*
D03*
D18*
X345700Y292050D02*
D03*
X356700D02*
D03*
X367700D02*
D03*
X378700D02*
D03*
X389700D02*
D03*
X400700D02*
D03*
X411700D02*
D03*
X422700D02*
D03*
D19*
X283740Y426295D02*
D03*
X264740D02*
D03*
D21*
X297169Y298995D02*
G03*
X324869Y271295I27700J0D01*
G01*
X604286D02*
G03*
X631240Y298249I0J26955D01*
G01*
X734015Y349295D02*
G03*
X761240Y376520I0J27225D01*
G01*
X662940Y349295D02*
G03*
X641260Y340315I0J-30661D01*
G01*
X640220Y339275D02*
G03*
X631240Y317595I21680J-21680D01*
G01*
Y298249D02*
Y317595D01*
X324869Y271295D02*
X604286D01*
X761240Y376520D02*
Y393995D01*
X614240Y510000D02*
X761240D01*
Y393995D02*
Y510000D01*
X662940Y349295D02*
X734015D01*
X640220Y339275D02*
X641260Y340315D01*
X169240Y510000D02*
X614240D01*
X169240Y421295D02*
Y510000D01*
X297169Y298995D02*
Y366295D01*
X242169Y421295D02*
X297169Y366295D01*
X169240Y421295D02*
X242169D01*
D22*
X307340Y462925D02*
D03*
X332740D02*
D03*
X358140D02*
D03*
X383540D02*
D03*
X408940D02*
D03*
X281940D02*
D03*
X256540D02*
D03*
X491140D02*
D03*
X516540D02*
D03*
X541940D02*
D03*
X567340D02*
D03*
X592740D02*
D03*
D23*
X434340D02*
D03*
X465740D02*
D03*
D24*
X690240Y438545D02*
D03*
D25*
X516490Y293795D02*
D03*
X587990D02*
D03*
D26*
X218440Y462925D02*
D03*
D27*
X193040Y462925D02*
D03*
M02*
