G04*
G04 #@! TF.GenerationSoftware,Altium Limited,CircuitStudio,1.5.2 (30)*
G04*
G04 Layer_Physical_Order=2*
G04 Layer_Color=11993160*
%FSLAX44Y44*%
%MOMM*%
G71*
G01*
G75*
%ADD21C,0.5000*%
%ADD29C,1.0160*%
%ADD30C,2.0160*%
%ADD31C,5.0160*%
%ADD32C,2.0320*%
%ADD33C,1.3160*%
D21*
X297169Y298995D02*
G03*
X324869Y271295I27700J0D01*
G01*
X604286D02*
G03*
X631240Y298249I0J26955D01*
G01*
X734015Y349295D02*
G03*
X761240Y376520I0J27225D01*
G01*
X662940Y349295D02*
G03*
X641260Y340315I0J-30661D01*
G01*
X640220Y339275D02*
G03*
X631240Y317595I21680J-21680D01*
G01*
Y298249D02*
Y317595D01*
X324869Y271295D02*
X604286D01*
X761240Y376520D02*
Y393995D01*
X614240Y510000D02*
X761240D01*
Y393995D02*
Y510000D01*
X662940Y349295D02*
X734015D01*
X640220Y339275D02*
X641260Y340315D01*
X169240Y510000D02*
X614240D01*
X169240Y421295D02*
Y510000D01*
X297169Y298995D02*
Y366295D01*
X242169Y421295D02*
X297169Y366295D01*
X169240Y421295D02*
X242169D01*
D29*
X734015Y349295D02*
G03*
X761240Y376520I0J27225D01*
G01*
X662940Y349295D02*
G03*
X641260Y340315I0J-30661D01*
G01*
X640220Y339275D02*
G03*
X631240Y317595I21680J-21680D01*
G01*
X604286Y271295D02*
G03*
X631240Y298249I0J26955D01*
G01*
X297169Y298995D02*
G03*
X324869Y271295I27700J0D01*
G01*
X297169Y298995D02*
Y366295D01*
X242169Y421295D02*
X297169Y366295D01*
X169240Y421295D02*
X242169D01*
X169240D02*
Y510000D01*
X761240D01*
Y376520D02*
Y510000D01*
X662940Y349295D02*
X734015D01*
X640220Y339275D02*
X641260Y340315D01*
X631240Y298249D02*
Y317595D01*
X324869Y271295D02*
X604286D01*
D30*
X332740Y462925D02*
D03*
X358140D02*
D03*
X383540D02*
D03*
X408940D02*
D03*
X434340D02*
D03*
X281940D02*
D03*
X256540D02*
D03*
X491140D02*
D03*
X516540D02*
D03*
X541940D02*
D03*
X567340D02*
D03*
D31*
X690240Y405295D02*
D03*
D32*
X218440Y462925D02*
D03*
X193040Y462925D02*
D03*
D33*
X567240Y335295D02*
D03*
X530240Y319295D02*
D03*
X422910Y281295D02*
D03*
X411480D02*
D03*
X400700D02*
D03*
X378940D02*
D03*
X356870D02*
D03*
X325000Y335000D02*
D03*
X302000Y408000D02*
D03*
X389700Y281295D02*
D03*
X345700D02*
D03*
X304240Y446295D02*
D03*
M02*
