G04*
G04 #@! TF.GenerationSoftware,Altium Limited,CircuitStudio,1.5.2 (30)*
G04*
G04 Layer_Color=20142*
%FSLAX44Y44*%
%MOMM*%
G71*
G01*
G75*
%ADD21C,0.5000*%
%ADD39R,0.6032X1.6032*%
%ADD40R,2.2032X2.2032*%
%ADD41R,1.7032X1.3532*%
%ADD42R,1.3532X2.4032*%
%ADD43R,1.3632X1.4032*%
%ADD44R,1.3632X1.4532*%
%ADD45R,1.1532X2.7032*%
%ADD46R,1.0032X1.4432*%
%ADD47R,1.5032X1.8032*%
%ADD48C,1.7272*%
%ADD49R,1.7272X1.7272*%
%ADD50R,13.2032X14.2032*%
%ADD51O,1.2532X2.0532*%
%ADD52R,1.9812X1.9812*%
%ADD53C,1.9812*%
%ADD54C,0.8032*%
D21*
X297169Y298995D02*
G03*
X324869Y271295I27700J0D01*
G01*
X604286D02*
G03*
X631240Y298249I0J26955D01*
G01*
X734015Y349295D02*
G03*
X761240Y376520I0J27225D01*
G01*
X662940Y349295D02*
G03*
X641260Y340315I0J-30661D01*
G01*
X640220Y339275D02*
G03*
X631240Y317595I21680J-21680D01*
G01*
Y298249D02*
Y317595D01*
X324869Y271295D02*
X604286D01*
X761240Y376520D02*
Y393995D01*
X614240Y510000D02*
X761240D01*
Y393995D02*
Y510000D01*
X662940Y349295D02*
X734015D01*
X640220Y339275D02*
X641260Y340315D01*
X169240Y510000D02*
X614240D01*
X169240Y421295D02*
Y510000D01*
X297169Y298995D02*
Y366295D01*
X242169Y421295D02*
X297169Y366295D01*
X169240Y421295D02*
X242169D01*
D39*
X539240Y319295D02*
D03*
X545740D02*
D03*
X552240D02*
D03*
X558740D02*
D03*
X565240D02*
D03*
D40*
X539740Y293795D02*
D03*
X564740D02*
D03*
D41*
X344300Y419600D02*
D03*
X422100D02*
D03*
D42*
X465150Y411650D02*
D03*
X322250Y296850D02*
D03*
D43*
X326300Y408350D02*
D03*
D44*
Y318350D02*
D03*
D45*
X466150Y298350D02*
D03*
D46*
X345700Y292050D02*
D03*
X356700D02*
D03*
X367700D02*
D03*
X378700D02*
D03*
X389700D02*
D03*
X400700D02*
D03*
X411700D02*
D03*
X422700D02*
D03*
D47*
X283740Y426295D02*
D03*
X264740D02*
D03*
D48*
X307340Y462925D02*
D03*
X332740D02*
D03*
X358140D02*
D03*
X383540D02*
D03*
X408940D02*
D03*
X281940D02*
D03*
X256540D02*
D03*
X491140D02*
D03*
X516540D02*
D03*
X541940D02*
D03*
X567340D02*
D03*
X592740D02*
D03*
D49*
X434340D02*
D03*
X465740D02*
D03*
D50*
X690240Y438545D02*
D03*
D51*
X516490Y293795D02*
D03*
X587990D02*
D03*
D52*
X218440Y462925D02*
D03*
D53*
X193040Y462925D02*
D03*
D54*
X567240Y335295D02*
D03*
X530240Y319295D02*
D03*
X422910Y281295D02*
D03*
X411480D02*
D03*
X400700D02*
D03*
X378940D02*
D03*
X356870D02*
D03*
X325000Y335000D02*
D03*
X302000Y408000D02*
D03*
X389700Y281295D02*
D03*
X368240D02*
D03*
X345700D02*
D03*
X304240Y446295D02*
D03*
M02*
